<?xml version="1.0" encoding="utf-8"?>
<!-- Generator: Adobe Illustrator 16.0.0, SVG Export Plug-In . SVG Version: 6.00 Build 0)  -->
<!DOCTYPE svg PUBLIC "-//W3C//DTD SVG 1.1//EN" "http://www.w3.org/Graphics/SVG/1.1/DTD/svg11.dtd">
<svg version="1.1" id="Layer_1" xmlns="http://www.w3.org/2000/svg" xmlns:xlink="http://www.w3.org/1999/xlink" x="0px" y="0px"
	 width="2500px" height="200px" viewBox="0 0 2500 200" enable-background="new 0 0 2500 200" xml:space="preserve">
<g>
	<path fill-rule="evenodd" clip-rule="evenodd" d="M2115.701,100c0-5.273,4.299-9.546,9.604-9.546s9.604,4.273,9.604,9.546
		c0,5.271-4.299,9.544-9.604,9.544S2115.701,105.272,2115.701,100z M2355.792,147.729c-19.207,0-134.451,0-144.055,0
		s-9.604,0-19.507-9.845c-14.059-13.974-38.115-37.884-38.115-37.884s-9.604-9.546,0-9.546c19.208,0,16.476,0,28.812,0
		c19.207,0,19.207-19.092,0-19.092c-13.648,0-32.841,0-48.019,0c-9.604,0-9.604,0-19.207,9.546s-28.811,28.636-38.414,38.184
		c-9.605,9.546-9.605,9.546,0,9.546c22.518,0,57.621,0,67.225,0c19.207,0,19.207,19.091,0,19.091s-115.243,0-115.243,0
		s-9.604,0,0-9.546c9.603-9.545,67.226-66.821,76.829-76.367c9.604-9.545,9.604-9.545,19.207-9.545s83.032,0,96.036,0
		c38.415,0,38.415,57.273,0,57.273c-4.123,0-9.604,0-19.207,0s-9.604,0,0,9.548c9.604,9.546,9.604,9.546,18.907,9.546
		c24.575,0,100.005,0,115.544,0c19.207,0,19.207-19.094,0-19.094c-19.208,0,0,0-19.208,0c-19.205,0-19.205-19.09,0-19.09
		c19.208,0,0,0,19.208,0c19.207,0,19.207-19.092,0-19.092c-19.208,0-38.413,0-57.621,0s-19.208-19.091,0-19.091s57.621,0,76.828,0
		c9.604,0,19.208,9.545,19.208,19.091c0,9.546,0,38.182,0,57.276C2375,138.183,2365.396,147.729,2355.792,147.729z M2272.015,90.454
		c-0.047,0,1.023,0,4.293,0c0.767,0,1.63,0,2.656,0c19.208,0,19.208,19.09,0,19.09c-1.026,0-1.89,0-2.656,0c0.047,0-1.022,0-4.293,0
		c-0.766,0-1.629,0-2.655,0c-19.208,0-19.208-19.09,0-19.09C2270.386,90.454,2271.249,90.454,2272.015,90.454z"/>
</g>
</svg>
