<?xml version="1.0" encoding="utf-8"?>
<!-- Generator: Adobe Illustrator 16.0.0, SVG Export Plug-In . SVG Version: 6.00 Build 0)  -->
<!DOCTYPE svg PUBLIC "-//W3C//DTD SVG 1.1//EN" "http://www.w3.org/Graphics/SVG/1.1/DTD/svg11.dtd">
<svg version="1.1" id="Layer_1" xmlns="http://www.w3.org/2000/svg" xmlns:xlink="http://www.w3.org/1999/xlink" x="0px" y="0px"
	 width="2500px" height="1200px" viewBox="0 0 2500 1200" enable-background="new 0 0 2500 1200" xml:space="preserve">
<rect x="0" y="0.003" fill="#303030" width="2500" height="1200.001"/>
<g>
	<path fill="#FFFFFF" d="M904.644,876.459c2.294,7.229,4.435,14.51,6.419,21.841l42.059-11.271
		c-2.18-8.063-4.526-16.079-7.053-24.028L904.644,876.459z"/>
	<path fill="#FFFFFF" d="M912.418,903.394c1.906,7.333,3.659,14.714,5.256,22.141l42.584-9.046
		c-1.752-8.173-3.681-16.296-5.778-24.365L912.418,903.394z"/>
	<path fill="#FFFFFF" d="M918.754,930.7c1.521,7.421,2.883,14.884,4.089,22.389l43.002-6.811
		c-1.323-8.257-2.832-16.466-4.507-24.629L918.754,930.7z"/>
	<path fill="#FFFFFF" d="M895.461,849.969c2.675,7.099,5.193,14.257,7.563,21.471l41.421-13.46
		c-2.604-7.938-5.381-15.809-8.326-23.617L895.461,849.969z"/>
	<path fill="#FFFFFF" d="M923.656,958.3c1.127,7.486,2.099,15.012,2.91,22.571l43.282-4.556c-0.893-8.313-1.96-16.593-3.202-24.827
		L923.656,958.3z"/>
	<path fill="#FFFFFF" d="M859.674,773.929c3.771,6.596,7.396,13.264,10.873,20.004l38.813-19.782
		c-3.82-7.415-7.808-14.75-11.956-22.004L859.674,773.929z"/>
	<path fill="#FFFFFF" d="M812.373,704.479c4.759,5.93,9.379,11.948,13.862,18.047l35.241-25.602
		c-4.934-6.712-10.016-13.334-15.253-19.856L812.373,704.479z"/>
	<path fill="#FFFFFF" d="M845.134,749.957c4.109,6.393,8.077,12.861,11.9,19.404l37.734-21.786
		c-4.205-7.2-8.58-14.312-13.107-21.339L845.134,749.957z"/>
	<path fill="#FFFFFF" d="M927.103,986.116c0.735,7.529,1.317,15.093,1.74,22.684l43.452-2.278c-0.461-8.354-1.088-16.674-1.9-24.957
		L927.103,986.116z"/>
	<path fill="#FFFFFF" d="M884.879,824.006c3.05,6.947,5.946,13.964,8.692,21.039l40.667-15.612
		c-3.018-7.785-6.209-15.5-9.563-23.146L884.879,824.006z"/>
	<path fill="#FFFFFF" d="M872.946,798.632c3.414,6.779,6.676,13.634,9.792,20.551l39.795-17.714
		c-3.426-7.613-7.01-15.156-10.769-22.618L872.946,798.632z"/>
	<path fill="#FFFFFF" d="M829.343,726.794c4.441,6.17,8.748,12.419,12.909,18.745l36.534-23.724
		c-4.575-6.965-9.308-13.844-14.197-20.628L829.343,726.794z"/>
	<path fill="#FFFFFF" d="M754.891,643.196c0.382,0.351,0.768,0.694,1.148,1.045L482.584,866.547l-55.526,105.312
		c-18.798-9.196-41.333-10.504-62.036-1.642c-27.431,11.745-45.148,38.62-45.148,68.464c0,10.081,2.022,19.927,6.022,29.266
		c16.154,37.729,59.994,55.282,97.728,39.127c20.038-8.582,34.859-25.256,41.413-45.246l34.123,10.564l327.791-33.821
		l-327.791-33.818l-34.161,10.573c-0.668-2.013-1.404-4.009-2.248-5.979c-0.791-1.85-1.668-3.632-2.586-5.383l104.654-55.184
		L787.17,675.263c1.196,1.292,2.386,2.593,3.566,3.896l32.37-29.146c-4.665-5.139-9.432-10.203-14.299-15.197l-27.652,34.016
		c0.076,0.081,0.155,0.161,0.232,0.242L559.385,942.158l-103.543,54.598c-5.767-8.473-13.105-15.486-21.459-20.807l54.821-103.976
		L762.243,650.01c0.08,0.075,0.156,0.15,0.236,0.229l34.03-27.662c-4.113-3.979-8.274-7.896-12.485-11.74L754.891,643.196z
		 M450.342,1014.656c3.271,7.65,4.935,15.71,4.935,23.954c0,24.437-14.511,46.438-36.968,56.056
		c-30.889,13.225-66.781-1.146-80.007-32.032c-3.276-7.65-4.938-15.708-4.938-23.953c0-24.438,14.509-46.439,36.968-56.058
		C401.224,969.4,437.115,983.771,450.342,1014.656z"/>
	<path fill="#FFFFFF" d="M0,675.343c4.228-4.563,8.543-9.063,12.941-13.5L0,648.896V675.343z"/>
	<path fill="#FFFFFF" d="M0,342.635c0.935-0.378,1.983-0.781,3.154-1.21c3.102-1.137,5.414-2.122,6.948-2.969
		c0.773-0.424,1.807-1.274,3.104-2.563c1.295-1.283,2.383-2.17,3.262-2.65l0.447,0.038l1.813,3.298
		c-0.164,0.479-0.876,1.908-2.127,4.315c-1.052,1.727-1.521,3.222-1.396,4.485c0.08,3.012,1.094,7.313,3.033,12.927
		c2.846,8.548,4.289,12.999,4.339,13.35c9.749,35.652,17.063,62.339,21.947,80.063c1.729,7.819,2.918,13.749,3.562,17.781
		c2.492,8.169,4.93,16.364,7.309,24.597c2.891,9.668,5.008,17.938,6.365,24.821c-2.537,2.929-4.854,4.961-6.943,6.108
		c-2.521,1.389-5.374,2.196-8.543,2.41c-8.053-8.918-16.167-17.813-24.334-26.669c-8.718-9.729-16.021-18.166-21.938-25.354v133.042
		c107.782-98.71,246.56-152.771,393.646-152.771c152.75,0,296.538,58.306,405.963,164.375l62.491-50.797l-50.776,62.46
		C918.33,741.332,977.17,885.744,977.17,1039.204c0,55.167-7.611,109.163-22.326,160.798h268.215
		c10.054-52.441,15.21-106.225,15.21-160.798c0-225.604-87.854-437.709-247.384-597.234
		C831.355,282.442,619.252,194.59,393.65,194.59c-139.453,0-273.738,33.581-393.646,96.895v51.15H0L0,342.635z M1193.949,1116.762
		c-0.838-0.251-2.759-1.379-5.766-3.384c-2.174-1.506-4.263-2.256-6.27-2.256h-150.168c-6.188,0-10.617,0.437-13.287,1.314
		c-1.506,1.505-4.181,3.387-8.021,5.643c-0.334-1.628-0.505-3.512-0.505-5.643c0-1.756,0.755-9.963,2.257-24.63
		c1.505,1.251,3.929,3.133,7.271,5.645c1.169,0,2.51,0,4.014,0c2.169,0,5.474-0.098,9.902-0.284
		c4.425-0.188,7.729-0.283,9.898-0.283c2.172,0,5.35,0.219,9.527,0.657c4.176,0.438,7.354,0.661,9.522,0.661h113.319
		c3.007,0,6.517-0.564,10.527-1.693c4.847-1.383,7.354-2.946,7.521-4.7c1.506,10.776,2.26,17.799,2.26,21.062
		C1195.959,1110.625,1195.286,1113.255,1193.949,1116.762z M1193.949,1078.599c-0.838-0.254-2.759-1.382-5.766-3.387
		c-2.174-1.502-4.263-2.252-6.27-2.252h-150.168c-6.188,0-10.617,0.437-13.287,1.313c-1.506,1.505-4.181,3.386-8.021,5.642
		c-0.334-1.63-0.505-3.515-0.505-5.642c0-1.758,0.755-9.966,2.257-24.633c1.505,1.251,3.929,3.132,7.271,5.645
		c1.169,0,2.51,0,4.014,0c2.169,0,5.474-0.097,9.902-0.284c4.425-0.188,7.729-0.281,9.898-0.281c2.172,0,5.35,0.219,9.527,0.659
		c4.176,0.437,7.354,0.657,9.522,0.657h113.319c3.007,0,6.517-0.563,10.527-1.692c4.847-1.379,7.354-2.947,7.521-4.701
		c1.506,10.776,2.26,17.799,2.26,21.063C1195.959,1072.459,1195.286,1075.089,1193.949,1078.599z M1159.859,976.689
		c5.847-1.505,11.695-3.072,17.547-4.701c6.854-1.878,11.946-4.26,15.291-7.145c1.337,6.643,2.009,11.783,2.009,15.418
		c0-0.502-0.922,3.572-2.758,12.222c-1.506-2.133-3.598-3.199-6.269-3.199c-2.673,0-12.121,2.385-28.328,7.148
		c-15.38,4.512-24.987,7.642-28.832,9.4c2.338,1.377,6.183,3.193,11.53,5.449c3.846,1.502,11.616,4.326,23.315,8.464
		c13.368,4.638,20.81,6.951,22.313,6.951c1.335,0,3.51-1.502,6.52-4.509c1.666,4.383,2.507,8.147,2.507,11.28
		c0,1.253-0.673,4.388-2.009,9.402c-1.67-1.884-4.598-4.452-8.771-7.715c-3.847-1.753-15.961-6.326-36.353-13.725
		c-21.061-7.644-32.51-11.468-34.345-11.468c-1.841,0-16.545,3.761-44.123,11.28c-26.745,7.271-42.535,11.723-47.384,13.351
		c-2.675,1.005-5.184,2.54-7.522,4.608c-2.341,2.067-4.009,3.291-5.011,3.668c0.168-1.511,0.168-3.573,0-6.207
		c0-3.012,0-5.017,0-6.019c0-7.648,0.586-13.228,1.753-16.732c3.847,1.628,6.396,2.44,7.646,2.44s10.902-2.63,28.955-7.893
		c17.379-5.017,27.825-8.339,31.334-9.967v-0.374c0-0.381-0.246-0.693-0.748-0.944c-4.351-2.005-14.462-5.896-30.337-11.657
		c-16.883-6.14-26.489-9.21-28.827-9.21c-1.173,0-3.85,0.688-8.023,2.063c-0.166-0.879-0.249-2.006-0.249-3.382
		c0-1.634,0.083-4.074,0.249-7.334c0.163-3.262,0.251-5.704,0.251-7.333c0.334,2.882,2.672,5.171,7.02,6.86
		c4.347,1.693,18.134,6.549,41.364,14.574c24.399,8.521,37.105,12.788,38.108,12.788
		C1100.023,994.554,1120.745,988.595,1159.859,976.689z M1068.418,605.641c7.457,7.929,12.127,13.222,14.012,15.882
		c1.018,1.431,1.988,3.969,2.93,7.604c-0.831,0.278-3.049,0.47-6.665,0.571c-2.641,0.027-4.776,0.623-6.416,1.78l-122.555,86.78
		c-5.052,3.575-8.412,6.492-10.087,8.75c-0.356,2.095-1.453,5.176-3.285,9.237c-1.215-1.142-2.438-2.572-3.668-4.313
		c-1.018-1.431-5.146-8.565-12.396-21.404c1.95,0.15,5.017,0.286,9.193,0.404c0.953-0.674,2.046-1.45,3.271-2.319
		c1.771-1.257,4.411-3.237,7.92-5.954c3.504-2.712,6.145-4.692,7.92-5.953c1.771-1.253,4.487-2.91,8.151-4.97
		c3.662-2.054,6.386-3.711,8.158-4.968l92.479-65.483c2.454-1.734,4.993-4.226,7.614-7.465
		C1068.156,609.9,1069.297,607.17,1068.418,605.641z M877.555,639.767c4.525-1.133,18.581-5.134,42.179-12.012
		c24.838-7.146,37.669-11.01,38.488-11.585c1.905-1.354,15.383-18.19,40.42-50.515c3.901-4.604,7.771-9.265,11.603-13.974
		c4.508-5.495,7.291-10.383,8.354-14.672c4.93,4.649,8.439,8.459,10.546,11.428c-0.29-0.409,1.313,3.446,4.814,11.565
		c-2.466-0.87-4.783-0.531-6.966,1.016c-2.187,1.546-8.518,8.943-18.991,22.204c-9.941,12.566-15.979,20.675-18.099,24.329
		c2.705-0.229,6.894-0.965,12.564-2.212c4.003-0.994,11.978-3.188,23.917-6.57c13.588-3.939,21.002-6.349,22.229-7.216
		c1.091-0.771,1.997-3.258,2.714-7.449c3.896,2.614,6.752,5.2,8.563,7.76c0.723,1.021,1.992,3.965,3.799,8.83
		c-2.448-0.563-6.324-0.976-11.615-1.221c-4.154,0.786-16.688,4.055-37.599,9.806c-21.606,5.927-33.159,9.429-34.66,10.487
		c-1.504,1.063-11.33,12.629-29.487,34.703c-17.627,21.386-27.944,34.146-30.955,38.272c-1.604,2.365-2.765,5.068-3.477,8.108
		c-0.717,3.04-1.371,5.001-1.975,5.892c-0.732-1.327-1.933-3.016-3.586-5.063c-1.738-2.456-2.896-4.098-3.478-4.908
		c-4.42-6.244-7.164-11.138-8.241-14.673c4.08-0.896,6.635-1.698,7.653-2.425c1.021-0.729,7.381-8.45,19.068-23.18
		c11.284-14.138,17.893-22.888,19.813-26.24l-0.219-0.308c-0.215-0.312-0.604-0.421-1.155-0.334
		c-4.708,0.875-15.205,3.544-31.491,8.015c-17.332,4.744-26.944,7.789-28.854,9.146c-0.954,0.677-2.742,2.779-5.354,6.325
		c-0.645-0.624-1.359-1.494-2.159-2.622c-0.939-1.33-2.284-3.371-4.03-6.127c-1.752-2.756-3.095-4.807-4.033-6.131
		C869.795,640.383,873.028,640.899,877.555,639.767z M656.924,471.323c3.496-3.087,14.133-13.114,31.906-30.087
		c18.758-17.78,28.367-27.121,28.827-28.012c1.069-2.082,5.277-23.231,12.613-63.45c1.344-5.886,2.629-11.807,3.863-17.749
		c1.471-6.954,1.686-12.575,0.653-16.868c6.521,1.857,11.395,3.615,14.625,5.282c-0.444-0.23,2.754,2.455,9.602,8.051
		c-2.584,0.36-4.489,1.731-5.712,4.104c-1.229,2.379-3.438,11.859-6.631,28.458c-3.038,15.73-4.657,25.712-4.856,29.934
		c2.298-1.447,5.675-4.031,10.13-7.754c3.101-2.726,9.167-8.339,18.206-16.847c10.245-9.761,15.72-15.305,16.406-16.644
		c0.611-1.188,0.273-3.81-1.024-7.86c4.666,0.524,8.395,1.506,11.179,2.938c1.108,0.574,3.594,2.606,7.438,6.091
		c-2.438,0.625-6.063,2.045-10.871,4.269c-3.325,2.61-12.939,11.285-28.854,26.019c-16.447,15.216-25.094,23.645-25.938,25.274
		c-0.844,1.638-4.237,16.432-10.188,44.388c-5.798,27.101-9.075,43.181-9.849,48.231c-0.334,2.837-0.119,5.771,0.647,8.796
		c0.765,3.027,1.087,5.076,0.96,6.135c-1.26-0.839-3.098-1.785-5.514-2.84c-2.677-1.38-4.459-2.3-5.351-2.76
		c-6.798-3.51-11.485-6.582-14.069-9.229c3.209-2.671,5.104-4.562,5.68-5.675c0.572-1.115,2.656-10.901,6.248-29.355
		c3.508-17.743,5.34-28.556,5.504-32.423l-0.336-0.171c-0.332-0.172-0.729-0.093-1.182,0.237
		c-3.775,2.946-11.859,10.149-24.263,21.619c-13.197,12.19-20.33,19.326-21.399,21.408c-0.535,1.036-1.152,3.729-1.841,8.076
		c-0.854-0.255-1.896-0.697-3.12-1.33c-1.447-0.743-3.584-1.938-6.4-3.578c-2.824-1.646-4.957-2.844-6.405-3.588
		C650.323,475.44,653.429,474.414,656.924,471.323z M399.988,417.707c1.693-4.342,6.551-18.129,14.572-41.361
		c8.522-24.396,12.785-37.104,12.785-38.104c0-2.34-5.952-23.063-17.861-62.177c-1.505-5.846-3.071-11.695-4.7-17.545
		c-1.878-6.854-4.264-11.95-7.146-15.293c6.643-1.339,11.784-2.007,15.418-2.007c-0.5,0,3.575,0.92,12.223,2.757
		c-2.133,1.503-3.194,3.595-3.194,6.267c0,2.678,2.377,12.12,7.146,28.327c4.512,15.384,7.644,24.991,9.397,28.834
		c1.378-2.341,3.195-6.181,5.451-11.534c1.506-3.84,4.328-11.61,8.463-23.313c4.639-13.369,6.955-20.809,6.955-22.313
		c0-1.333-1.505-3.507-4.512-6.518c4.387-1.671,8.147-2.506,11.284-2.506c1.25,0,4.386,0.668,9.397,2.007
		c-1.88,1.668-4.45,4.597-7.709,8.771c-1.757,3.85-6.33,15.962-13.728,36.352c-7.646,21.057-11.47,32.509-11.47,34.348
		c0,1.841,3.761,16.546,11.281,44.126c7.268,26.737,11.719,42.536,13.35,47.377c1.004,2.678,2.539,5.188,4.609,7.523
		c2.063,2.341,3.286,4.008,3.664,5.011c-1.507-0.163-3.572-0.163-6.205,0c-3.012,0-5.016,0-6.018,0
		c-7.646,0-13.228-0.584-16.732-1.753c1.627-3.844,2.441-6.394,2.441-7.646c0-1.256-2.634-10.903-7.896-28.953
		c-5.019-17.384-8.341-27.829-9.968-31.336h-0.377c-0.373,0-0.689,0.246-0.938,0.748c-2.008,4.348-5.896,14.46-11.657,30.333
		c-6.144,16.884-9.211,26.493-9.211,28.834c0,1.172,0.688,3.846,2.063,8.021c-0.875,0.17-2.004,0.252-3.382,0.252
		c-1.634,0-4.073-0.082-7.335-0.252c-3.262-0.164-5.702-0.252-7.329-0.252C396.009,424.394,398.295,422.056,399.988,417.707z
		 M363.328,402.547c-0.19-4.434-0.287-7.729-0.287-9.906c0-2.171,0.219-5.35,0.66-9.524c0.438-4.178,0.655-7.354,0.655-9.524
		V260.272c0-3.009-0.563-6.517-1.688-10.529c-1.381-4.848-2.947-7.354-4.705-7.518c10.783-1.506,17.801-2.26,21.063-2.26
		c1.756,0,4.388,0.668,7.897,2.008c-0.251,0.835-1.38,2.757-3.385,5.763c-1.504,2.174-2.26,4.267-2.26,6.271v150.171
		c0,6.183,0.438,10.613,1.315,13.288c1.504,1.504,3.386,4.176,5.645,8.021c-1.63,0.333-3.515,0.503-5.645,0.503
		c-1.757,0-9.965-0.753-24.634-2.256c1.257-1.508,3.133-3.927,5.645-7.271c0-1.17,0-2.51,0-4.017
		C363.607,410.275,363.515,406.974,363.328,402.547z M97.123,290.29c2.856-1.566,9.371-4.296,19.539-8.172
		c-1.455,0.995-1.618,3.945-0.49,8.854c0.942,4.06,2.142,7.408,3.592,10.044l54.624,99.279c1.05,1.904,2.774,4.583,5.171,8.024
		c2.396,3.453,4.119,6.129,5.168,8.03c1.047,1.905,2.555,4.846,4.523,8.813c1.974,3.976,3.479,6.914,4.523,8.815
		c0.729,1.315,1.371,2.49,1.936,3.512c3.813,1.724,6.627,2.939,8.448,3.648c-12.128,8.391-18.952,13.007-20.491,13.853
		c-1.865,1.027-3.597,1.786-5.188,2.278c0.124-4.451,0.485-7.702,1.074-9.744c-0.513-2.769-2.271-6.855-5.253-12.281
		l-72.383-131.563c-0.974-1.759-2.638-3.222-5.002-4.404c-3.205-1.67-5.116-2.807-5.746-3.42
		C93.607,292.994,95.588,291.138,97.123,290.29z M63.683,308.688c2.855-1.567,9.377-4.292,19.542-8.171
		c-1.454,0.993-1.616,3.941-0.491,8.854c0.945,4.063,2.143,7.407,3.593,10.04l54.624,99.281c1.049,1.905,2.771,4.582,5.17,8.033
		c2.398,3.448,4.122,6.126,5.165,8.023c1.05,1.905,2.563,4.846,4.528,8.813c1.972,3.972,3.479,6.91,4.526,8.811
		c0.723,1.32,1.371,2.494,1.934,3.518c3.81,1.722,6.624,2.938,8.448,3.647c-12.125,8.393-18.955,13.007-20.497,13.854
		c-1.864,1.022-3.592,1.787-5.182,2.278c0.127-4.452,0.479-7.701,1.071-9.747c-0.517-2.765-2.268-6.854-5.252-12.277L68.477,322.077
		c-0.969-1.752-2.634-3.223-5.001-4.399c-3.2-1.668-5.117-2.811-5.743-3.42C60.166,311.392,62.149,309.534,63.683,308.688z
		 M30.243,327.092c2.856-1.57,9.374-4.297,19.54-8.179c-1.451,0.995-1.617,3.945-0.492,8.855c0.944,4.058,2.145,7.406,3.595,10.046
		l54.624,99.28c1.048,1.903,2.771,4.583,5.17,8.022c2.397,3.451,4.121,6.128,5.167,8.027c1.047,1.907,2.557,4.846,4.523,8.816
		c1.976,3.972,3.479,6.907,4.525,8.812c0.728,1.317,1.371,2.49,1.937,3.513c3.813,1.723,6.625,2.938,8.448,3.652
		c-12.129,8.386-18.953,13.003-20.495,13.85c-1.866,1.027-3.592,1.786-5.185,2.279c0.125-4.453,0.479-7.703,1.074-9.747
		c-0.521-2.765-2.271-6.854-5.252-12.275L35.035,340.48c-0.968-1.759-2.631-3.224-4.998-4.409c-3.204-1.665-5.121-2.803-5.746-3.416
		C26.727,329.79,28.707,327.933,30.243,327.092z"/>
	<path fill="#FFFFFF" d="M929.67,1042.504c-0.043,7.476-0.234,14.927-0.584,22.351l43.459,2.295
		c0.387-8.186,0.598-16.401,0.643-24.646H929.67z"/>
	<path fill="#FFFFFF" d="M373.636,1047.492c4.896,11.434,18.121,16.727,29.542,11.833c11.428-4.887,16.722-18.114,11.832-29.544
		c-4.896-11.417-18.119-16.715-29.544-11.824C374.041,1022.841,368.746,1036.082,373.636,1047.492z"/>
	<path fill="#FFFFFF" d="M910.938,1180.611c-1.768,6.504-3.654,12.971-5.664,19.393h45.451c0.773-2.695,1.523-5.399,2.26-8.108
		L910.938,1180.611z"/>
	<path fill="#FFFFFF" d="M928.812,1070.12c-0.429,7.594-1.008,15.155-1.751,22.688l43.28,4.563
		c0.818-8.281,1.458-16.604,1.927-24.954L928.812,1070.12z"/>
	<path fill="#FFFFFF" d="M929.688,1038.504h43.516c-0.011-8.938-0.226-17.849-0.636-26.718l-43.453,2.279
		C929.487,1022.179,929.678,1030.328,929.688,1038.504z"/>
	<path fill="#FFFFFF" d="M917.572,1153.372c-1.604,7.429-3.357,14.812-5.271,22.146l42.049,11.279
		c2.107-8.065,4.039-16.188,5.799-24.357L917.572,1153.372z"/>
	<path fill="#FFFFFF" d="M926.514,1098.053c-0.819,7.558-1.801,15.079-2.935,22.563l42.984,6.822
		c1.25-8.229,2.329-16.507,3.229-24.822L926.514,1098.053z"/>
	<path fill="#FFFFFF" d="M922.77,1125.825c-1.212,7.505-2.587,14.966-4.111,22.386l42.575,9.063
		c1.681-8.161,3.193-16.369,4.524-24.624L922.77,1125.825z"/>
	<path fill="#FFFFFF" d="M535.98,522.165c7.333,2.01,14.614,4.178,21.843,6.492l13.46-41.414c-7.952-2.55-15.967-4.928-24.036-7.132
		L535.98,522.165z"/>
	<path fill="#FFFFFF" d="M312.865,509.174c7.5-1.126,15.039-2.099,22.611-2.907l-4.545-43.281
		c-8.332,0.892-16.625,1.958-24.874,3.201L312.865,509.174z"/>
	<path fill="#FFFFFF" d="M340.726,505.721c7.544-0.734,15.123-1.307,22.729-1.727l-2.276-43.455
		c-8.367,0.459-16.702,1.084-24.998,1.896L340.726,505.721z"/>
	<path fill="#FFFFFF" d="M285.22,514.073c7.437-1.52,14.915-2.893,22.437-4.099l-6.809-42.987
		c-8.271,1.323-16.498,2.833-24.68,4.508L285.22,514.073z"/>
	<path fill="#FFFFFF" d="M368.726,503.731c8.229-0.374,16.486-0.57,24.774-0.572v-43.515c-9.054,0.002-18.069,0.218-27.056,0.63
		L368.726,503.731z"/>
	<path fill="#FFFFFF" d="M794.266,683.082c5.061,5.681,9.988,11.446,14.783,17.304l33.854-27.412
		c-5.272-6.444-10.699-12.789-16.271-19.035L794.266,683.082z"/>
	<path fill="#FFFFFF" d="M425.386,504.076c7.604,0.441,15.177,1.048,22.717,1.808l4.552-43.284
		c-8.292-0.833-16.623-1.488-24.986-1.97L425.386,504.076z"/>
	<path fill="#FFFFFF" d="M43.323,209.931c100.23-42.395,206.095-65.903,315.181-70.057V139.5h11.752
		c7.782-0.194,15.58-0.3,23.394-0.3c121.498,0,239.363,23.8,350.323,70.729c107.171,45.329,203.421,110.224,286.072,192.876
		c82.653,82.655,147.545,178.906,192.876,286.077c46.934,110.956,70.729,228.82,70.729,350.319
		c0,54.427-4.791,108.123-14.282,160.797H2500v-1200H0v229.625C14.236,222.702,28.674,216.128,43.323,209.931z"/>
	<path fill="#FFFFFF" d="M36.879,502.563c-0.224-5.602-0.926-10.646-2.111-15.147c-2.008-7.287-7.676-27.346-17.012-60.169
		c-6.873-24.448-12.301-44.458-16.275-60.006c-0.132-0.503-0.589-3.012-1.362-7.55c-0.039-0.245-0.076-0.465-0.115-0.696v104.472
		c8.129,8.841,14.637,16.295,19.496,22.338C28.927,497.209,34.72,502.802,36.879,502.563z"/>
	<path fill="#FFFFFF" d="M245.428,478.663c-0.446,0.117-0.896,0.239-1.34,0.358L245.428,478.663z"/>
	<path fill="#FFFFFF" d="M0,641.434l16.678,16.678c5.424-5.366,10.938-10.604,16.547-15.712L4.177,610.138l3.922-3.529
		l29.046,32.263c5.688-5.079,11.467-10.029,17.335-14.844l-27.312-33.727l4.099-3.321l27.307,33.727
		c5.94-4.774,11.977-9.412,18.089-13.912l-25.5-35.099l4.271-3.103l25.492,35.087c6.18-4.458,12.446-8.771,18.788-12.946
		l-23.614-36.365l4.427-2.874l23.61,36.359c6.403-4.125,12.885-8.113,19.44-11.95l-21.665-37.536l4.563-2.635l21.668,37.533
		c6.61-3.78,13.295-7.417,20.052-10.904l-19.675-38.62l4.697-2.391l19.674,38.606c6.798-3.424,13.67-6.688,20.604-9.813
		l-17.636-39.614l4.814-2.146l17.641,39.616c6.967-3.06,13.997-5.968,21.09-8.721l-15.55-40.515l4.924-1.894l15.557,40.523
		c7.114-2.681,14.289-5.213,21.521-7.587l-13.429-41.323l5.017-1.632l13.431,41.333c7.242-2.299,14.545-4.436,21.896-6.424
		l-11.267-42.049C152.009,503.9,69.43,549.459,0.004,613.827v27.604H0V641.434z"/>
	<path fill="#FFFFFF" d="M257.864,520.414c7.353-1.907,14.748-3.664,22.192-5.262l-9.052-42.578
		c-8.188,1.755-16.325,3.688-24.408,5.789L257.864,520.414z"/>
	<path fill="#FFFFFF" d="M397.5,503.18c7.564,0.053,15.105,0.258,22.619,0.621l2.277-43.461c-8.269-0.401-16.568-0.62-24.896-0.677
		V503.18z"/>
	<path fill="#FFFFFF" d="M640.312,563.016c6.733,3.499,13.397,7.141,19.985,10.932l21.776-37.713
		c-7.246-4.171-14.571-8.188-21.979-12.033L640.312,563.016z"/>
	<path fill="#FFFFFF" d="M664.856,576.605c6.536,3.848,12.996,7.842,19.378,11.977l23.722-36.529
		c-7.019-4.548-14.125-8.938-21.313-13.162L664.856,576.605z"/>
	<path fill="#FFFFFF" d="M711.618,607.556c6.089,4.505,12.091,9.147,18.009,13.929l27.407-33.843
		c-6.51-5.259-13.114-10.368-19.813-15.321L711.618,607.556z"/>
	<path fill="#FFFFFF" d="M688.646,591.47c6.319,4.183,12.563,8.502,18.72,12.965l25.604-35.233
		c-6.774-4.911-13.646-9.658-20.603-14.26L688.646,591.47z"/>
	<path fill="#FFFFFF" d="M453.349,506.434c7.567,0.834,15.103,1.821,22.596,2.969l6.813-42.983
		c-8.242-1.266-16.526-2.36-24.854-3.272L453.349,506.434z"/>
	<path fill="#FFFFFF" d="M733.715,624.816c5.844,4.813,11.604,9.757,17.27,14.837l29.132-32.354
		c-6.229-5.592-12.557-11.036-18.982-16.326L733.715,624.816z"/>
	<path fill="#FFFFFF" d="M508.722,515.481c7.434,1.618,14.821,3.39,22.159,5.32l11.271-42.063
		c-8.069-2.124-16.201-4.063-24.378-5.841L508.722,515.481z"/>
	<path fill="#FFFFFF" d="M481.156,510.224c7.511,1.227,14.979,2.618,22.405,4.158l9.054-42.582
		c-8.168-1.695-16.385-3.221-24.646-4.563L481.156,510.224z"/>
	<path fill="#FFFFFF" d="M615.082,550.745c6.911,3.142,13.76,6.431,20.534,9.864l19.776-38.812
		c-7.455-3.78-14.988-7.396-22.595-10.845L615.082,550.745z"/>
	<path fill="#FFFFFF" d="M562.836,530.295c7.217,2.393,14.375,4.938,21.477,7.636l15.605-40.657
		c-7.81-2.969-15.683-5.774-23.617-8.4L562.836,530.295z"/>
	<path fill="#FFFFFF" d="M589.232,539.822c7.074,2.771,14.087,5.692,21.036,8.767l17.719-39.791
		c-7.645-3.383-15.363-6.587-23.146-9.628L589.232,539.822z"/>
</g>
</svg>
