<?xml version="1.0" encoding="utf-8"?>
<!-- Generator: Adobe Illustrator 16.0.0, SVG Export Plug-In . SVG Version: 6.00 Build 0)  -->
<!DOCTYPE svg PUBLIC "-//W3C//DTD SVG 1.1//EN" "http://www.w3.org/Graphics/SVG/1.1/DTD/svg11.dtd">
<svg version="1.1" id="Layer_1" xmlns="http://www.w3.org/2000/svg" xmlns:xlink="http://www.w3.org/1999/xlink" x="0px" y="0px"
	 width="2500px" height="1200px" viewBox="0 0 2500 1200" enable-background="new 0 0 2500 1200" xml:space="preserve">
<g id="Layer_7">
	<rect x="0" y="-7.5" fill="#050505" width="2500" height="1210"/>
</g>
<g id="Layer_6">
	<path fill="#FFFFFF" d="M1800.183,724.885c0,181.188-89.374,341.521-226.446,439.293c-109.84,45.505-489.84,19.001-612.974,8.708
		c-144.157-96.789-239.026-261.315-239.026-448.001c0-297.813,241.419-539.229,539.226-539.229
		C1558.766,185.661,1800.183,427.073,1800.183,724.885z"/>
</g>
<g id="Layer_5">
	<rect x="0" y="1132.51" fill="#101010" width="2500" height="71"/>
</g>
<g id="Layer_4">
	<path fill="#101010" d="M1400.347,1118.763c0,0,5.998-31.336,32.16-33.582c26.161-2.247,29.333-19.476,31.711-20.22
		c2.379-0.748,0-19.479,0-19.479s17.438-11.229,19.816-11.229c2.38,0,5.673-21.604,10.354-20.531
		c4.694,1.063,18.979-15.403,30.063-7.166c11.104,8.229,30.127-2.315,30.127-2.315s57.013-10.553,61.807,0
		c4.794,10.563,14.313,27.774,17.479,27.774c3.174,0,17.438-0.001,19.813,14.976c2.378,14.979-1.585,18.729,0,30.702
		c1.585,11.979,25.368,22.464,25.368,22.464s18.229,3.858,22.188,11.229c3.968,7.373-7.934,11.229-7.934,11.229L1400.347,1118.763z"
		/>
	<path fill="#101010" d="M1431.391,1102.949l-13.301-11.938c0,0-5.688-13.396-10.189-13.396s-16.51-2-18.51,10
		s-3.334,16.666-4.667,20s-4.667,4-4.667,4l-6.666,15.243l48.666,12.091L1431.391,1102.949z"/>
	<path fill="#101010" d="M1032.843,1134.949c10.77,7.7-11.529-32-10.528-42S1016.053,1122.949,1032.843,1134.949z"/>
	<path fill="#101010" d="M1025.927,1125.61c13.021,2.35-24.119-23.979-27.496-33.448
		C995.052,1082.696,1005.615,1121.948,1025.927,1125.61z"/>
	<path fill="#101010" d="M1019.74,1143.26c-10.77,7.697,11.529-32,10.529-42C1029.268,1091.26,1036.525,1131.26,1019.74,1143.26z"/>
	<path fill="#101010" d="M1026.654,1133.909c-13.023,2.354,24.119-23.979,27.496-33.438
		C1057.525,1091,1046.959,1130.26,1026.654,1133.909z"/>
	<path fill="#101010" d="M1378.857,1157.655c10.771,20.637-11.527-85.751-10.525-112.548S1362.073,1125.498,1378.857,1157.655z"/>
	<path fill="#101010" d="M1371.944,1132.614c13.029,6.291-24.119-64.267-27.496-89.632
		C1341.072,1017.615,1351.64,1122.812,1371.944,1132.614z"/>
	<path fill="#101010" d="M1378.134,1129.615c7.337,11.021,0.567-34.009,5.059-43.004
		C1387.677,1077.615,1366.693,1112.441,1378.134,1129.615z"/>
	<path fill="#101010" d="M1363.531,1116.531c13.029,2.354-24.118-23.979-27.495-33.438
		C1332.66,1073.615,1343.228,1112.877,1363.531,1116.531z"/>
	<path fill="#101010" d="M1362.934,1118.689c8.459-1.162-19.58-9.893-23.542-15.021
		C1335.432,1098.531,1349.75,1120.498,1362.934,1118.689z"/>
	<path fill="#101010" d="M1358.553,1118.366c7.146-4.672-21.937-0.558-27.707-3.498
		C1325.07,1111.933,1347.414,1125.651,1358.553,1118.366z"/>
	<path fill="#101010" d="M577.79,918.439c0,0-23.836,7.209-37.396,0c0,0,1.949,12.979,15.203,11.534
		C568.849,928.531,570.972,926.366,577.79,918.439z"/>
	<path fill="#101010" d="M1196.623,898.438c0.604,13.225,18.011-28.857,26.479-34.259
		C1231.578,858.778,1195.666,877.823,1196.623,898.438z"/>
	<path fill="#101010" d="M1264.885,1011.052c-10.276,8.348,33.91-2.647,43.289,0.965
		C1317.552,1015.617,1280.898,998.031,1264.885,1011.052z"/>
	<path fill="#101010" d="M721.781,785.385c-10.77,7.688,11.529-32,10.527-42S738.564,773.385,721.781,785.385z"/>
	<path fill="#101010" d="M781.182,752.635c-3.221-12.854,25.555,22.438,35.227,25.177
		C826.08,780.531,786.198,772.638,781.182,752.635z"/>
	<path fill="#101010" d="M999.184,1113.365c7.463-2.288-19.118-6.059-23.444-10.104
		C971.414,1099.207,987.553,1116.931,999.184,1113.365z"/>
	<path fill="#101010" d="M1753.031,833.635c-12.863,3.104,31.743,12.219,38.65,19.52
		C1798.594,860.448,1773.094,828.802,1753.031,833.635z"/>
	<path fill="#101010" d="M1687.055,978.427c-4.363,14.896,35.338-40.114,48.766-49.624
		C1749.246,919.284,1693.855,955.189,1687.055,978.427z"/>
	<path fill="#101010" d="M1404.772,957.365c16.297-6.179-51.926-9.063-65.963-16.72C1324.775,933,1379.371,966.993,1404.772,957.365
		z"/>
	<path fill="#101010" d="M602.75,1122.052c0,0-34.063-12.989-38.668-21.271c-4.604-8.274,6.443-29.938-14.729-30.714
		c-9.902-0.359-21.12,6.867-31.659,7.952c-11.999,1.234-22.911-3.3-26.341,2.88c-6.444,11.606-12.889,22.439-23.938,23.213
		c-11.054,0.774-34.784-4.226-34.784-4.226s20.976,72.317,56.88,64.585C525.416,1156.738,603.676,1136.897,602.75,1122.052z"/>
	<path fill="#101010" d="M1749.627,1124.803c-2.938-27.109,24.871-33.571,36.396-49.754c11.516-16.188,21.896-13.965,47.146-8.229
		c25.248,5.735,8.688,13.356,8.027,20.654c-0.655,7.296,1.975,4.826,18.862,13.646c16.89,8.813,40.479,12.659,31.346,21.901
		C1882.264,1132.262,1752.565,1151.906,1749.627,1124.803z"/>
	<path fill="#101010" d="M572.448,1117.447c0,0,6-22.866,15-21.438c9,1.428,18.5-1.563,23-0.063s8.5-3.779,11.5-0.43
		c3,3.354,15.72,8.717,17.22,10.354c1.5,1.642,8,3.278,8,3.278s8.829,2.196,10.329-3.278c1.5-5.479,14.45-11.771,14.45-11.771h8
		l6,11.682c0,0,10.384-7.979,12.884-4.641c2.5,3.347,10.116,4.393,10.116,4.393s11-3.371,13,0c2,3.377,15.521,2.896,15.521,2.896
		s18.934-14.814,27.479-14.814s24.5,13.323,34.5,0c10-13.313,16,0,16,0l16.5-1.438l8,12.645l12.5,4.102
		c0,0,21.385-0.571,23.385,0.236c2,0.815-43.385,15.001-43.385,15.001l-159,34.063l-72-15.031L572.448,1117.447z"/>
	<path fill="#101010" d="M916.843,1114.113l17.157-5.888l11-2.726c0,0,10.063,2.438,11.024,2.726c0.976,0.286,12.976,0,12.976,0
		l-12.976,5.888H916.843z"/>
	<path fill="#101010" d="M1027.856,1112.198l11.478-6.697h8.168l3.771,2.729L1063,1105.5c0,0,2-5.985,7.5-6.49
		c5.5-0.51,13,3.646,13,3.646s2-1.38,10,0.232s15,3.612,17,2.612s20,0,20,0l13,2.725l8.021,6.229l-74.021,4.353L1027.856,1112.198z"
		/>
	<path fill="#101010" d="M1394,1098.967c0,0-12.409,7.146-18.457,8.845c-6.043,1.699-24.688,8.154-24.688,8.154l-20.007-1.093
		l-21.159-11.98c0,0-9.188-3.245-10.688-2.316c-1.5,0.938-23.5,2.316-23.5,2.316l-20.5,4.573c0,0-7.5-2.203-8,1.418
		c-0.5,3.616,10.688,11.68,16.347,11.646c5.653-0.029,59.653-3.038,59.653-3.038l48.896-0.809l22.104,2.113v-19.829H1394
		L1394,1098.967z"/>
	<path fill="#101010" d="M1661.805,1127.236c5.5,1.271-6.521-25.368-0.338-17.019c8.838,11.938,31.338,8.512,32.838,7.053
		c1.5-1.452,13.535,3.989,17.268,0c3.733-3.989,24.732,3.967,26.232,10.134c1.5,6.175-13.5,22.11-13.5,22.11L1661.805,1127.236z"/>
	<path fill="#101010" d="M1863.717,1113.771C1866,1113,1880,1101.806,1885,1103.153s16,3.991,18,3.419s14,0.572,15.5,0
		s19,1.938,19,1.938l8,6.856L1863.717,1113.771z"/>
	<path fill="#101010" d="M1834.608,1108.594c0,0,8.128-5.688,9.455-6.729s5.476-4.963,6.138-4.002c0.663,0.959,6.637,0,6.637,0
		s3.48,2.532,6.807,4.002c3.313,1.47,9.123,1.47,9.123,1.47l7.464-5.472h5.009l3.575,6.168c0,0,11.956-3.636,13.479-2.166
		c1.521,1.47,2.318,6.729,2.318,6.729H1834.608L1834.608,1108.594z"/>
	<path fill="#101010" d="M2210,1111.5c0,0,21.5,1.354,26.5-0.814s30-4.823,37-8.252S2281,1091.5,2290,1091s29-10.19,37.5-10.103
		s18.5,7.215,23.5,6.406c5-0.813,17-1.191,19,0c2,1.188,17,4.008,23,9.1s13.5,5.375,17.5,6.483c4,1.104,22-1.608,24.5,0
		c2.5,1.604,14.5,2.604,20,2.604s9.5,4.907,13.5,5.31c4,0.396,7,5.659,7,5.659l-21.5,3.711l-129,8.135l-103.104-4.813L2210,1111.5z"
		/>
	<path fill="#101010" d="M565.73,1117.554c0,0-0.278-0.413-0.644-1.194c-0.365-0.777-0.815-1.926-1.188-3.357
		c-0.354-1.435-0.64-3.146-0.659-5.023c-0.013-0.938,0.031-1.914,0.162-2.902c0.117-0.986,0.329-1.984,0.608-2.975
		c0.293-0.979,0.646-1.95,1.104-2.859c0.438-0.918,0.983-1.765,1.547-2.549c0.313-0.378,0.604-0.752,0.905-1.1
		c0.327-0.329,0.646-0.65,0.957-0.966c0.337-0.28,0.666-0.563,0.982-0.818c0.323-0.247,0.657-0.465,0.977-0.677
		c0.632-0.416,1.261-0.723,1.811-0.979c0.563-0.235,1.052-0.435,1.472-0.553c0.836-0.239,1.313-0.329,1.313-0.329
		s-0.349,0.367-0.963,0.929c-0.311,0.277-0.641,0.675-1.053,1.062c-0.204,0.188-0.396,0.436-0.604,0.668
		c-0.206,0.229-0.438,0.462-0.644,0.729c-0.44,0.521-0.871,1.104-1.313,1.714c-0.204,0.313-0.416,0.644-0.633,0.977
		c-0.19,0.338-0.396,0.686-0.599,1.037c-0.171,0.363-0.38,0.723-0.56,1.101c-0.15,0.388-0.354,0.755-0.505,1.155
		c-0.313,0.787-0.604,1.601-0.842,2.438c-0.979,3.334-1.299,6.946-1.463,9.729c-0.083,1.393-0.115,2.577-0.146,3.419
		C565.74,1117.068,565.73,1117.554,565.73,1117.554z"/>
	<path fill="#101010" d="M92.501,1118.084c7.633-4.201,19.348-38.525,20.335-44.146c1.193-6.751,11.018-11.081,10.29-15.984
		c-0.661-4.438-11.911-9.354-10.29-17.011c1.373-6.479,10.267-0.917,10.267-12.663c0-4.136,15.438-3.43,18.154-3.43
		c2.729,0,8.729-6.66,14.583-14.44c3.904-5.186,7.736-10.869,10.486-15.4c1.495-2.476,8.95-4.733,16.572-6.472
		c8.97-2.026,18.165-4.146,18.165-4.146c16.5-0.54,27.705,2.967,35.452,4.55c12.917,2.639,16.229,5.148,18.45,6.064
		c4.023,1.648,15.237,8.138,22.832,6.214c7.599-1.934,13.938-0.146,20.385-3.729c6.813-3.792,23.989-1.492,23.989-1.492
		s13.345,9.318,19.131,9.195c10.121-0.216,6.221,4.942,8.667,10.604c2.442,5.654-0.445,11.316,6.187,11.469
		c8.975,0.192,4.704-1.712,10.684-4.146c5.938-2.419,13.872,3.23,13.872,5.491c0,4.533,3.875,10.718,3.875,10.718
		s7.565,3.173,7.565,8.115c0,4.945,26.4,14.359,26.4,21.637c0,4.533,11.511,12.912,11.511,12.912s15.993,2.853,21.869,6.004
		c19.216,10.339,24.261,30.084,24.261,30.084S82.633,1123.515,92.501,1118.084z"/>
	<path fill="#101010" d="M421.219,1088.632c0,0,0.123-0.492,0.38-1.315c0.256-0.828,0.646-1.992,1.146-3.354
		c0.517-1.366,1.139-2.938,1.845-4.59c0.341-0.832,0.726-1.679,1.101-2.531c0.382-0.855,0.771-1.729,1.16-2.601
		c0.793-1.724,1.587-3.438,2.331-5.058c0.391-0.802,0.722-1.585,1.063-2.323c0.365-0.729,0.645-1.438,0.938-2.097
		c0.313-0.647,0.539-1.254,0.769-1.794c0.229-0.543,0.438-1.021,0.563-1.418c0.278-0.802,0.479-1.277,0.479-1.277
		s0.104,0.481,0.202,1.362c0.021,0.221,0.063,0.469,0.073,0.732c0.011,0.268-0.005,0.551-0.008,0.854
		c-0.021,0.61-0.007,1.319-0.122,2.063c-0.104,0.734-0.191,1.563-0.396,2.393c-0.188,0.834-0.383,1.724-0.668,2.604
		c-0.27,0.892-0.56,1.81-0.922,2.699c-0.334,0.914-0.728,1.814-1.131,2.714c-1.63,3.574-3.707,6.907-5.516,9.237
		c-0.904,1.168-1.722,2.104-2.318,2.729C421.598,1088.298,421.219,1088.632,421.219,1088.632z"/>
	<path fill="#101010" d="M426.927,1081.117c0,0,0.101-0.197,0.313-0.51c0.225-0.311,0.556-0.722,0.99-1.164
		c0.881-0.882,2.231-1.838,3.813-2.431c0.788-0.291,1.631-0.502,2.469-0.563c0.834-0.059,1.676,0.056,2.354,0.353
		c0.341,0.143,0.628,0.35,0.853,0.552c0.223,0.209,0.361,0.424,0.447,0.613c0.104,0.172,0.121,0.344,0.147,0.438
		c0.019,0.104,0.027,0.156,0.027,0.156s-0.06-0.021-0.147-0.063c-0.09-0.043-0.217-0.104-0.382-0.148
		c-0.324-0.104-0.749-0.143-1.229-0.053c-0.235,0.041-0.49,0.092-0.771,0.176c-0.272,0.071-0.568,0.176-0.874,0.271
		c-0.313,0.109-0.63,0.229-0.957,0.35c-0.333,0.126-0.67,0.253-1.008,0.381c-1.369,0.51-2.814,1.014-3.983,1.29
		c-0.585,0.14-1.093,0.229-1.461,0.287C427.152,1081.109,426.927,1081.117,426.927,1081.117z"/>
	<path fill="#101010" d="M155.685,1039.941c13.05,32.063-45.583-48.465-58.626-51.858
		C84.013,984.679,135.345,989.981,155.685,1039.941z"/>
	<path fill="#101010" d="M157.581,1043.029c6.524,34.646-38.188-75.813-51.663-90.063
		C92.436,938.719,147.422,989.047,157.581,1043.029z"/>
	<path fill="#101010" d="M100.175,1125.082c19.359-2.543-44.646-22.884-53.633-34.66
		C37.552,1078.635,70.003,1129.052,100.175,1125.082z"/>
	<path fill="#101010" d="M73.217,1146.006c14.657,12.896-12.146-48.669-9.188-63.194
		C66.988,1068.282,50.385,1125.891,73.217,1146.006z"/>
	<path fill="#101010" d="M155.873,1036.459c-1.102,17.682-13.045-52.391-19.563-65.832
		C129.796,957.183,157.584,1008.906,155.873,1036.459z"/>
	<path fill="#101010" d="M2313.336,1112.364c0,0-64.771-26.789-73.521-43.87c-3.481-6.796-2.252-17.967-2.047-29.052
		c0.213-11.5-8.128-21.854-9.095-29.252c-0.971-7.396-19.971-15.758-19.971-15.758s-33.35,9.646-32.925,20.263
		c0.208,5.211-3.563,13.288-8.39,20.265c-5.004,7.229,6.313,13.729-15.188,13.729s-11.938-9.872-18.016-19.646
		c-5.308-8.521-14.36,3.643-14.36,3.643s-22.646-15.872-23.334,17.186c5.188,18.4-8.831-12.854-13.29-5.896
		c-4.338,6.774-3.387,19.12-8.666,23.504c-5.414,4.489-12.277,0.402-19.334,0.938c-21.006,1.599-13,43.313-69.428,12.571
		c-1.833,3.146,1.928,17.021-5.072,26.022c-7,9.006,63.168,105.503,117.313,92.851
		C2166.293,1183.899,2315.094,1142.98,2313.336,1112.364z"/>
	<path fill="#101010" d="M2010.094,1122.61c0,0-90.692-14.1-72.594-14.1c4.435,0,14.549-14.729,18.481-15.946
		c3.938-1.225,4.149-6.795,7.41-8.618c6.804-3.802,18.354,0.481,20.964-1.723c5.104-4.319,6.669-0.438,6.669-14.649
		c0-2.845,10.756-0.743,12.929-1.313c3.445-0.903-0.302-9.027,6.854-9.027c7.146,0,5.676,6.965,14.572,7.737
		c3.787,0.331,7.646,9.063,12.349,9.063c3.688,0.002,8.09-8.629,12.146-9.045c4.154-0.428,14.224,0.604,19.771-4.521
		c3.333-3.079,2.031-11.658,5.279-14.934c6.804-6.847,12.938-12.857,16.396-12.857c2.681,0,6.248,2.094,10.056,5.291
		c4.27,3.586,4.604,10.642,8.526,15.604c2.854,3.604,14.123,4.688,15.96,7.755c2.604,4.354,8.271,18.32,20.141,12.942
		c9.604-4.354-26.834,23.979-32.752,26.104c-16.152,5.798-47.146,22.232-47.146,22.232h-56.02v0.004h0.005v0.002L2010.094,1122.61
		L2010.094,1122.61z"/>
	<path fill="#101010" d="M2247.539,1075.291c-19.508-0.847,42.473-26.698,50.395-39.229
		C2305.852,1023.531,2277.941,1076.598,2247.539,1075.291z"/>
	<path fill="#101010" d="M2228.379,1079.377c-17.271-9.104,49.809-5.938,62.325-13.864
		C2303.237,1057.571,2255.293,1093.573,2228.379,1079.377z"/>
	<path fill="#101010" d="M2235.512,1099.477c5.516,18.73,15.68-47.65,25.928-58.358
		C2271.691,1030.406,2226.914,1070.281,2235.512,1099.477z"/>
	<path fill="#101010" d="M2236.623,1082.971c9.586,17.013,4.563-49.954,12.146-62.694
		C2256.35,1007.546,2221.693,1056.463,2236.623,1082.971z"/>
	<path fill="#101010" d="M2247.646,1074.74c-6.593-9.438,27.715,10.331,36.42,9.563
		C2292.77,1083.523,2257.918,1089.448,2247.646,1074.74z"/>
	<path fill="#101010" d="M1952.766,1051.388c-8.374,9.246-15.438,65.288-20.493,49.662
		C1924.392,1076.697,1961.15,1042.166,1952.766,1051.388z"/>
	<path fill="#101010" d="M1930.521,1063.852c-3.616,11.93,14.008,65.598,2.734,53.646
		C1915.717,1098.875,1934.146,1051.927,1930.521,1063.852z"/>
	<path fill="#101010" d="M1952.23,1077.252c-3.523,11.957-47.711,47.146-31.734,43.334
		C1945.39,1114.646,1955.758,1065.281,1952.23,1077.252z"/>
	<path fill="#101010" d="M1905.49,1090.168c11.926,3.643,46.689,48.166,43.031,32.148
		C1942.821,1097.365,1893.566,1086.531,1905.49,1090.168z"/>
	<path fill="#101010" d="M1916.774,1073.459c1.333,7.229,25.058,30.604,15.927,27.386
		C1918.469,1095.812,1915.455,1066.233,1916.774,1073.459z"/>
	<path fill="#101010" d="M2405.746,1130.612c2.271,12.82,13.752-29.458,21.265-35.357
		C2434.515,1089.345,2402.219,1110.635,2405.746,1130.612z"/>
	<path fill="#101010" d="M2407.289,1119.469c7.484,10.895-0.48-33.173,3.604-41.863
		C2414.987,1068.916,2395.623,1102.49,2407.289,1119.469z"/>
	<path fill="#101010" d="M1725.535,1076.949c5.397,11.245,54.625,38.947,38.248,37.729
		C1738.26,1112.781,1720.162,1065.709,1725.535,1076.949z"/>
	<path fill="#101010" d="M1749.621,1083.875c0.824,7.311,22.869,32.271,13.983,28.425
		C1749.76,1106.293,1748.808,1076.573,1749.621,1083.875z"/>
	<path fill="#101010" d="M195.829,979.907c-13.044,3.396-71.68,83.927-58.626,51.86C157.542,981.812,208.874,976.51,195.829,979.907
		z"/>
	<path fill="#101010" d="M178.575,970.213c-13.477,14.251-58.188,124.705-51.663,90.063
		C137.071,1006.284,192.057,955.964,178.575,970.213z"/>
	<path fill="#101010" d="M158.878,959.605c-3.9,14.949-0.814,84.931-5.979,68.751C144.862,1003.143,162.786,944.656,158.878,959.605
		z"/>
	<path fill="#101010" d="M815.173,1113.651c0,0,60.484-11.237,68.173-3.845c7.682,7.392,40.488,3.383,51.154,3.845
		s28.998-6.369,34.5-5.426c5.5,0.941,35.563-7.678,40.891-2.729c5.328,4.95,7.531,13.642,25.896,4.312
		c18.365-9.33,46.058,4.521,46.058,4.521l63.558-0.677l-18.892,51.4c0,0-136.818-3.887-138.742-3.887s-194.592-2.95-194.592-2.95
		l-24.666-29.05L815.173,1113.651z"/>
	<path fill="#101010" d="M1132.823,1113.844c0,0,13.564-7.007,18.698-5.618s71.646-2.897,78.313,0.021
		c6.666,2.924,5.332-9.278,5.332-9.278s10.332-1.162,14.834,0.188c4.5,1.354,10.959,9.071,10.959,9.071l14.209,5.618l45.322-0.191
		v19.357c0,0-46.656,15.495-48.656,15.495s-108.348,0-108.348,0h-47.652L1132.823,1113.844z"/>
	<path fill="#101010" d="M1397,1103.153l-22.272,11.3l-23.87,4.35l-20.007-3.929l-21.159-1.177L1306,1142
		c0,0,58.529,6.01,58.521,6.506c-0.021,0.494,35.831,0,35.831,0L1397,1103.153z"/>
	<polygon fill="#101010" points="1702.052,1131.343 1686.722,1151.5 1435,1168.01 1407.271,1135.28 1431.391,1106.5 
		1559.096,1097.716 1677.5,1108.594 	"/>
	<polygon fill="#101010" points="2000.5,1107.635 1954.018,1108.594 1909,1109.207 1855.5,1119.222 1838,1154.5 2020,1160 	"/>
	<path fill="#101010" d="M2457.5,1113.635L2455,1126c0,0,2,2.614,9.5,2.312s17-1.64,18.5,0.025s10.5,4.685,10.5,4.685
		s-26,17.98-28,18.48S2327,1148,2327,1148l-52.26-3.481l24.551-30.883L2420,1117L2457.5,1113.635z"/>
	<path fill="#101010" d="M416.506,1095.834l36.666,18.298l8.754,40.329l-295.304-11.3l-134.788,4.604l-20-15.259
		c0,0,17.006-0.009,17.006-17.013s20.331-8.188,29.66-8.535c9.329-0.352,15.909-11.136,15.909-11.136h20.553l28.205-4
		L416.506,1095.834z"/>
	<path fill="#101010" d="M1336.843,1007.949c10.77,7.7-11.529-32-10.528-42S1320.053,995.949,1336.843,1007.949z"/>
	<path fill="#101010" d="M354.344,877.428c0,0,0.123-0.492,0.38-1.315c0.256-0.828,0.646-1.992,1.146-3.354
		c0.517-1.366,1.139-2.938,1.846-4.588c0.34-0.832,0.725-1.681,1.1-2.533c0.382-0.855,0.771-1.729,1.16-2.601
		c0.793-1.724,1.587-3.438,2.331-5.058c0.391-0.802,0.722-1.585,1.063-2.323c0.365-0.729,0.645-1.438,0.938-2.097
		c0.313-0.646,0.539-1.254,0.769-1.794c0.229-0.543,0.438-1.021,0.563-1.418c0.278-0.802,0.479-1.277,0.479-1.277
		s0.104,0.481,0.202,1.362c0.021,0.221,0.063,0.469,0.073,0.729c0.011,0.271-0.005,0.554-0.008,0.854
		c-0.021,0.61-0.007,1.319-0.122,2.059c-0.104,0.739-0.191,1.563-0.396,2.396c-0.188,0.834-0.383,1.724-0.668,2.604
		c-0.27,0.896-0.56,1.813-0.922,2.703c-0.334,0.914-0.728,1.814-1.131,2.711c-1.63,3.577-3.707,6.91-5.516,9.24
		c-0.904,1.168-1.722,2.104-2.318,2.729C354.724,877.094,354.344,877.428,354.344,877.428z"/>
	<path fill="#101010" d="M192.12,783.937c21.201,7.644-60.134,2.055-75.054,7.386C102.141,796.656,159.09,772.022,192.12,783.937z"
		/>
	<path fill="#101010" d="M2401.817,969.364c1.481-5.993,18.765,16.063,28.085,19.854
		C2439.22,993.009,2399.51,978.699,2401.817,969.364z"/>
	<path fill="#101010" d="M2162.345,816.94c1.333,7.232,25.057,30.606,15.926,27.386
		C2164.036,839.294,2161.027,809.715,2162.345,816.94z"/>
	<path fill="#101010" d="M1911.01,909.217c5.396,11.245,54.625,38.942,38.248,37.729
		C1923.726,945.047,1905.635,897.971,1911.01,909.217z"/>
</g>
<g id="Layer_3">
	<g>
		<path fill="#F1F1F1" d="M993.694,642.234c-2.207,13.254,3.813,26.104,50.651,31.076c46.84,4.975,116.76,0.188,118.968-13.065
			c2.207-13.251-63.417-6.128-110.257-11.103C1006.219,644.177,995.901,628.983,993.694,642.234z"/>
		<path fill="#F1F1F1" d="M804.314,678.908c1.797-10.794,28.832-16.813,60.383-13.478c31.559,3.35,55.672,14.813,53.874,25.606
			s-28.831,16.813-60.383,13.479C826.636,701.177,802.516,689.709,804.314,678.908z"/>
		<path fill="#F1F1F1" d="M817.559,649.229c-3.006,18.048,45.325,38.068,107.951,44.718c62.627,6.65,115.831-2.59,118.836-20.637
			c3.006-18.049-45.326-38.069-107.951-44.719C873.768,621.94,820.564,631.181,817.559,649.229z"/>
	</g>
	<path fill="#F1F1F1" d="M864.182,622.319c10.879-9.84,24.014,1.409,43.384-5.792c19.371-7.2,9.313-33.354,35.202-26.208
		c25.887,7.148,71.162,14.402,57.801,36.084c-13.356,21.688-97.646,26.264-110.368,20.402
		C877.482,640.943,853.305,632.156,864.182,622.319z"/>
	<path fill="#F1F1F1" d="M893.302,636.435c0,0-111.954,14.479-131.231,6.902c-19.273-7.575-28.617-33.729-57.137-26.902
		c-28.521,6.812-44.158,2.035-69.168,4.217c-25.016,2.188-76.521,2.18-51.121,12.531c25.396,10.353,35.354,8.13,77.782,8.26
		c42.427,0.13,45.979,8.162,67.852,22.512c21.861,14.354,39.899,12.938,72.097,16.925c32.198,3.99,147.969,8.646,122.104-5.052
		C898.6,662.146,927.844,632.448,893.302,636.435z"/>
	<path fill="#F1F1F1" d="M727.905,404.322c0,0,61.919-5.155,76.188-2.271c14.27,2.895,62.813,7.393,74.011,5.261
		c11.188-2.136,92.278-5.678,59.288-16.966c-32.988-11.289-37.008-17.896-63.958-21.537c-26.952-3.646-33.896-16.199-53.425-16.571
		c-19.531-0.373-30.521,16.729-54.917,12.303c-24.403-4.43-69.583,5.526-61.108,18.021
		C712.459,395.052,727.905,404.322,727.905,404.322z"/>
	<path fill="#F1F1F1" d="M927.052,636.938c0,0-43.092-4.832-53.621-3.936c-10.529,0.896-45.573,1.313-53.188-0.146
		c-7.604-1.467-64.517-6.209-39.479-10.553c25.021-4.344,28.836-7.451,48.457-8.249c19.604-0.8,26.384-6.729,40.269-6.191
		c13.896,0.538,19.154,9.367,37.084,8.092c17.938-1.271,48.465,5.313,40.627,11.146C939.352,632.94,927.052,636.938,927.052,636.938
		z"/>
	<g>
		
			<ellipse transform="matrix(-0.9913 -0.1318 0.1318 -0.9913 3466.0488 1053.4523)" fill="#F1F1F1" cx="1767.885" cy="412.029" rx="54.026" ry="19.149"/>
		
			<ellipse transform="matrix(-0.9913 -0.1318 0.1318 -0.9913 3346.2954 997.4884)" fill="#F1F1F1" cx="1706.156" cy="388.01" rx="36.395" ry="15.593"/>
		
			<ellipse transform="matrix(-0.9913 -0.1318 0.1318 -0.9913 3279.4141 1056.8289)" fill="#F1F1F1" cx="1674.681" cy="419.886" rx="72.24" ry="26.066"/>
	</g>
	<path fill="#F1F1F1" d="M1632.563,389.094c6.866-7.777,15.156,1.104,27.384-4.577c12.229-5.688,5.878-26.368,22.221-20.716
		c16.344,5.646,44.914,11.385,36.48,28.521c-8.436,17.146-61.637,20.767-69.662,16.131
		C1640.959,403.81,1625.697,396.864,1632.563,389.094z"/>
	<path fill="#F1F1F1" d="M1650.938,400.245c0,0-70.662,11.438-82.83,5.454c-12.167-5.979-18.063-26.646-36.063-21.27
		c-18.002,5.382-27.871,1.608-43.657,3.334c-15.786,1.729-48.299,1.729-32.268,9.905c16.021,8.182,22.313,6.426,49.097,6.521
		c26.776,0.104,29.024,6.451,42.823,17.793c13.8,11.354,25.186,10.214,45.509,13.373c20.317,3.158,93.39,6.826,77.063-3.979
		C1654.285,420.567,1672.744,397.097,1650.938,400.245z"/>
	<path fill="#F1F1F1" d="M1488.039,399.638c0,0,32.771-3.422,40.313-1.506c7.552,1.918,33.246,4.896,39.167,3.479
		c5.924-1.416,48.836-3.764,31.377-11.239c-17.459-7.479-19.585-11.854-33.854-14.271c-14.264-2.415-17.938-10.736-28.271-10.979
		c-10.336-0.246-16.146,11.08-29.063,8.146c-12.909-2.938-36.813,3.665-32.34,11.946
		C1479.864,393.493,1488.039,399.638,1488.039,399.638z"/>
	<path fill="#F1F1F1" d="M1700.481,383.349c0,0-27.198-3.82-33.845-3.111c-6.646,0.71-28.771,1.051-33.569-0.104
		c-4.804-1.16-40.721-4.908-24.929-8.354c15.793-3.435,18.202-5.89,30.586-6.521c12.385-0.633,16.651-5.32,25.416-4.896
		c8.765,0.438,12.09,7.403,23.407,6.396c11.313-1.015,30.589,4.188,25.643,8.806
		C1708.244,380.188,1700.481,383.349,1700.481,383.349z"/>
	<path fill="#F1F1F1" d="M658.427,628.188c0,0-51.916-4.328-63.881-1.906c-11.97,2.438-52.679,6.199-62.063,4.412
		c-9.383-1.791-77.371-4.762-49.71-14.227c27.659-9.467,31.029-15.004,53.626-18.063c22.604-3.055,28.42-13.582,44.794-13.895
		c16.376-0.313,25.587,14.02,46.048,10.311c20.473-3.709,58.354,4.646,51.234,15.113
		C671.375,620.407,658.427,628.188,658.427,628.188z"/>
	<g>
		
			<ellipse transform="matrix(-0.9941 0.1081 -0.1081 -0.9941 3509.1606 785.1304)" fill="#F1F1F1" cx="1733.3" cy="487.68" rx="53.959" ry="19.118"/>
		
			<ellipse transform="matrix(-0.9941 0.1081 -0.1081 -0.9941 3462.5518 703.4652)" fill="#F1F1F1" cx="1712.207" cy="445.591" rx="36.349" ry="15.576"/>
		<path fill="#F1F1F1" d="M1704.537,474.409c5.603,20.566,32.424,42.357,59.924,48.688c27.502,6.313,45.265-5.233,39.664-25.798
			c-5.604-20.566-32.422-42.359-59.922-48.688C1716.701,442.302,1698.943,453.849,1704.537,474.409z"/>
	</g>
	<path fill="#F1F1F1" d="M1894.073,476.136c-9.571-5.646-46.448,7.188-56.93,6.104c-10.479-1.094-46.431-1.209-54.892,0.898
		c-8.469,2.104-69.115,9.363-45.146,14.99s26.598,9.836,46.488,10.672c19.894,0.838,24.371,8.882,38.912,7.96
		c14.543-0.921,23.682-13.104,41.631-11.582c17.94,1.516,52.187-7.903,46.563-15.813
		C1905.073,481.45,1903.645,481.773,1894.073,476.136z"/>
	<g>
		<path fill="#F1F1F1" d="M1934.572,300.029c2.563,10.479-39.365,22.155-93.645,26.086c-54.277,3.938-100.354-1.367-102.906-11.85
			c-2.561-10.479,39.366-22.152,93.646-26.084C1885.943,284.25,1932.014,289.556,1934.572,300.029z"/>
		<path fill="#F1F1F1" d="M2015.732,278.432c-2.083-8.533-33.41-13.313-69.973-10.654c-36.563,2.648-64.518,11.711-62.436,20.244
			c2.082,8.531,33.396,13.299,69.979,10.651C1989.865,296.025,2017.816,286.963,2015.732,278.432z"/>
		<path fill="#F1F1F1" d="M2138.678,305.559c3.479,14.271-52.522,30.09-125.095,35.346c-72.569,5.264-134.229-2.047-137.705-16.312
			c-3.483-14.271,52.521-30.104,125.096-35.354C2073.543,283.988,2135.196,291.293,2138.678,305.559z"/>
	</g>
	<path fill="#F1F1F1" d="M2084.651,284.287c-12.604-7.771-27.825,1.109-50.272-4.577c-22.438-5.688-10.791-26.362-40.791-20.716
		c-29.998,5.646-82.459,11.385-66.979,28.521c15.483,17.137,113.16,20.76,127.896,16.127
		C2069.236,299.01,2097.26,292.064,2084.651,284.287z"/>
	<path fill="#F1F1F1" d="M2050.914,295.445c0,0,129.729,11.443,152.063,5.455c22.338-5.981,33.159-26.646,66.21-21.265
		c33.052,5.384,51.169,1.604,80.146,3.334c28.979,1.726,88.686,1.723,59.229,9.896c-29.438,8.188-40.969,6.438-90.134,6.523
		c-49.162,0.104-53.291,6.452-78.623,17.794c-25.334,11.343-46.235,10.214-83.553,13.373c-37.313,3.158-171.451,6.826-141.479-3.979
		C2044.769,315.768,2010.885,292.297,2050.914,295.445z"/>
	<path fill="#F1F1F1" d="M2077.934,315.495c0,0,60.103,4.273,73.994,2.563c13.89-1.72,61.101-4.028,71.948-2.461
		c10.854,1.563,89.597,5.04,57.438,12.063c-32.157,7.021-36.121,11.354-62.339,13.396c-26.222,2.042-33.081,10.266-52.063,10.229
		c-18.978-0.021-29.479-11.508-53.229-8.896c-23.749,2.593-67.553-4.629-59.197-12.792
		C2062.844,321.427,2077.934,315.495,2077.934,315.495z"/>
	<path fill="#F1F1F1" d="M1959.957,278.549c0,0,49.938-3.813,62.143-3.104c12.201,0.71,52.812,1.049,61.631-0.105
		c8.818-1.153,74.76-4.898,45.771-8.343c-28.979-3.438-33.416-5.894-56.146-6.521c-22.737-0.646-30.572-5.32-46.662-4.896
		c-16.091,0.426-22.188,7.399-42.974,6.396c-20.777-1.021-56.158,4.188-47.078,8.809
		C1945.703,275.388,1959.957,278.549,1959.957,278.549z"/>
	<g>
		<path fill="#F1F1F1" d="M1998.41,388.655c-2.104,10.513-47.935,16.411-102.354,13.188c-54.438-3.229-96.86-14.354-94.766-24.857
			c2.097-10.504,47.921-16.402,102.354-13.187C1958.08,367.021,2000.51,378.15,1998.41,388.655z"/>
		<path fill="#F1F1F1" d="M2004.996,344.666c1.709-8.563-26.646-17.254-63.313-19.43c-36.666-2.172-67.771,3.01-69.479,11.563
			c-1.709,8.556,26.641,17.251,63.312,19.423C1972.182,358.397,2003.291,353.223,2004.996,344.666z"/>
		<path fill="#F1F1F1" d="M1952.51,369.615c-10.273,20.566-59.523,42.357-110.021,48.681c-50.483,6.313-83.104-5.229-72.813-25.798
			c10.27-20.563,59.521-42.354,110.012-48.681C1930.178,337.498,1962.781,349.052,1952.51,369.615z"/>
	</g>
	<path fill="#F1F1F1" d="M1789.818,391.684c0,0,85.278,7.195,104.521,6.104c19.23-1.1,85.234-1.209,100.771,0.896
		c15.541,2.111,126.896,9.363,82.892,14.99c-44.008,5.627-48.826,9.836-85.352,10.672c-36.521,0.838-44.745,8.882-71.438,7.96
		c-26.688-0.921-43.479-13.104-76.437-11.582c-32.946,1.516-95.813-7.903-85.479-15.813
		C1769.619,397.01,1789.818,391.684,1789.818,391.684z"/>
	<g>
		
			<ellipse transform="matrix(0.9913 0.1318 -0.1318 0.9913 56.012 -65.1)" fill="#F1F1F1" cx="519.796" cy="390.587" rx="54.027" ry="19.147"/>
		
			<ellipse transform="matrix(0.9913 0.1318 -0.1318 0.9913 59.7017 -73.0234)" fill="#F1F1F1" cx="581.504" cy="414.503" rx="36.397" ry="15.592"/>
		
			<ellipse transform="matrix(0.9913 0.1318 -0.1318 0.9913 55.7803 -77.446)" fill="#F1F1F1" cx="612.93" cy="382.651" rx="72.235" ry="26.064"/>
	</g>
	<path fill="#F1F1F1" d="M755.219,411.977c-6.867,7.777-15.156-1.115-27.391,4.577c-12.229,5.688-5.877,26.368-22.229,20.716
		c-16.34-5.65-44.916-11.385-36.479-28.521c8.438-17.146,61.644-20.769,69.654-16.13C746.82,397.26,762.082,404.198,755.219,411.977
		z"/>
	<path fill="#F1F1F1" d="M566.834,385.802c0,0,70.648-11.443,82.83-5.455c12.168,5.979,18.063,26.646,36.063,21.265
		c18-5.381,27.871-1.604,43.656-3.334c15.787-1.726,48.299-1.723,32.266-9.9c-16.031-8.187-22.313-6.431-49.094-6.521
		c-26.78-0.104-29.027-6.452-42.826-17.794c-13.799-11.353-25.184-10.215-45.506-13.373s-93.392-6.826-77.064,3.979
		C563.487,365.472,545.03,388.942,566.834,385.802z"/>
	<path fill="#F1F1F1" d="M489.716,355.747c0,0,27.188,3.814,33.846,3.105c6.646-0.71,28.766-1.045,33.563,0.111
		c4.812,1.16,40.728,4.908,24.937,8.342c-15.793,3.438-18.203,5.895-30.586,6.521c-12.389,0.646-16.652,5.314-25.416,4.896
		c-8.771-0.425-12.09-7.404-23.408-6.396c-11.315,1.021-30.588-4.188-25.646-8.812C481.947,358.907,489.716,355.747,489.716,355.747
		z"/>
	<g>
		
			<ellipse transform="matrix(-0.0419 0.9991 -0.9991 -0.0419 818.2374 -224.1515)" fill="#F1F1F1" cx="516.592" cy="280.242" rx="53.981" ry="19.131"/>
		
			<ellipse transform="matrix(-0.0419 0.9991 -0.9991 -0.0419 786.1304 -164.1852)" fill="#F1F1F1" cx="471.786" cy="294.83" rx="36.361" ry="15.584"/>
		<path fill="#F1F1F1" d="M499.233,306.635c21.172-2.456,46.732-25.729,57.093-51.979c10.363-26.242,1.604-45.528-19.563-43.072
			c-21.186,2.451-46.733,25.729-57.104,51.979C469.302,289.798,478.061,309.094,499.233,306.635z"/>
	</g>
	<path fill="#F1F1F1" d="M684.277,318.87c0,0,46.451-7.188,56.932-6.104c10.479,1.094,46.438,1.209,54.896-0.896
		c8.465-2.104,69.119-9.354,45.146-14.99c-23.979-5.627-26.604-9.836-46.48-10.672c-19.896-0.838-24.371-8.882-38.912-7.96
		c-14.543,0.921-23.686,13.104-41.631,11.582s-52.188,7.897-46.563,15.813C673.275,313.552,684.277,318.87,684.277,318.87z"/>
	<g>
		<path fill="#F1F1F1" d="M564.635,320.76c-2.563-10.479,39.362-22.155,93.645-26.1c54.278-3.938,100.354,1.372,102.906,11.854
			c2.559,10.475-39.367,22.152-93.646,26.084C613.26,336.534,567.189,331.228,564.635,320.76z"/>
		<path fill="#F1F1F1" d="M483.47,342.352c2.083,8.533,33.41,13.303,69.973,10.654c36.563-2.649,64.513-11.711,62.428-20.244
			c-2.081-8.531-33.396-13.299-69.973-10.651C509.343,324.76,481.386,333.82,483.47,342.352z"/>
		<path fill="#F1F1F1" d="M360.525,315.225c-3.479-14.267,52.522-30.09,125.093-35.354c72.571-5.263,134.229,2.061,137.705,16.313
			c3.486,14.271-52.52,30.092-125.093,35.348C425.656,336.802,364.01,329.49,360.525,315.225z"/>
	</g>
	<path fill="#F1F1F1" d="M414.552,336.496c12.604,7.771,27.825-1.104,50.271,4.571c22.445,5.692,10.791,26.368,40.79,20.722
		s82.46-11.391,66.98-28.521c-15.485-17.137-113.16-20.76-127.896-16.127C429.969,321.773,401.948,328.719,414.552,336.496z"/>
	<path fill="#F1F1F1" d="M448.289,325.344c0,0-129.729-11.443-152.063-5.455c-22.344,5.979-33.159,26.646-66.21,21.265
		c-33.056-5.381-51.175-1.604-80.15-3.334c-28.979-1.726-88.674-1.723-59.229-9.897c29.437-8.188,40.971-6.434,90.136-6.521
		c49.162-0.104,53.291-6.452,78.623-17.794c25.334-11.354,46.229-10.227,83.548-13.375c37.313-3.154,171.456-6.824,141.479,3.979
		C454.434,305.016,488.322,328.486,448.289,325.344z"/>
	<path fill="#F1F1F1" d="M421.269,305.288c0,0-60.102-4.271-73.994-2.563c-13.89,1.72-61.104,4.028-71.95,2.461
		c-10.854-1.566-89.595-5.04-57.438-12.063c32.151-7.021,36.115-11.352,62.339-13.393c26.217-2.042,33.081-10.266,52.063-10.235
		c18.979,0.021,29.479,11.503,53.229,8.902c23.749-2.593,67.548,4.632,59.197,12.792
		C436.364,299.357,421.269,305.288,421.269,305.288z"/>
	<path fill="#F1F1F1" d="M553.523,342.234c0,0-53.967,5.738-67.154,4.677c-13.187-1.063-57.072-1.563-66.604,0.157
		c-9.53,1.743-80.796,7.371-49.462,12.535c31.333,5.158,36.114,8.849,60.682,9.792c24.573,0.952,33.041,7.991,50.437,7.354
		c17.396-0.646,23.98-11.121,46.438-9.607c22.455,1.521,60.693-6.288,50.878-13.227
		C568.931,346.984,553.523,342.234,553.523,342.234z"/>
	<g>
		<path fill="#F1F1F1" d="M515.084,261.9c2.103-10.507,47.926-16.411,102.354-13.188c54.436,3.229,96.861,14.354,94.764,24.854
			c-2.094,10.505-47.92,16.408-102.354,13.188C555.406,283.534,512.987,272.405,515.084,261.9z"/>
		<path fill="#F1F1F1" d="M508.49,305.89c-1.708,8.563,26.646,17.254,63.313,19.425c36.666,2.171,67.771-3.005,69.479-11.563
			c1.709-8.563-26.633-17.27-63.301-19.438C541.311,292.157,510.198,297.333,508.49,305.89z"/>
		<path fill="#F1F1F1" d="M560.983,280.94c10.273-20.563,59.524-42.354,110.014-48.675c50.488-6.319,83.097,5.229,72.818,25.798
			c-10.271,20.563-59.523,42.359-110.012,48.675C583.315,313.058,550.716,301.51,560.983,280.94z"/>
	</g>
	<path fill="#F1F1F1" d="M827.426,298.521c0,0-85.279-7.189-104.521-6.104c-19.229,1.104-85.239,1.209-100.771-0.896
		c-15.541-2.105-126.896-9.359-82.896-14.99c44.008-5.627,48.829-9.836,85.354-10.672c36.521-0.838,44.738-8.882,71.438-7.96
		c26.701,0.921,43.479,13.104,76.438,11.582c32.938-1.521,95.813,7.896,85.479,15.813
		C847.615,293.201,827.426,298.521,827.426,298.521z"/>
	<path fill="#F1F1F1" d="M2096.289,490.99c-1.145-5.626,17.498-11.895,41.621-14.005c24.125-2.109,44.604,0.736,45.731,6.362
		c1.146,5.625-17.497,11.893-41.622,14.003C2117.904,499.469,2097.427,496.615,2096.289,490.99z"/>
	<path fill="#F1F1F1" d="M2044.248,485.476c-1.209-5.997,18.271-12.647,43.521-14.856c25.253-2.209,46.706,0.861,47.916,6.856
		c1.212,5.999-18.271,12.646-43.521,14.854C2066.912,494.55,2045.465,491.472,2044.248,485.476z"/>
	<path fill="#F1F1F1" d="M2041.475,497.852c6.076,4.526,13.414-0.648,24.235,2.666c10.813,3.311,5.189,15.354,19.664,12.063
		c14.463-3.29,39.752-6.631,32.289-16.604c-7.476-9.979-54.563-12.089-61.654-9.396
		C2048.906,489.279,2035.397,493.323,2041.475,497.852z"/>
	<path fill="#F1F1F1" d="M2123.028,493.108c0,0-37.325-3.208-45.955-1.922c-8.629,1.29-37.948,3.021-44.687,1.845
		c-6.742-1.173-55.647-3.771-35.676-9.048c19.973-5.27,22.435-8.516,38.72-10.047c16.282-1.532,20.545-7.701,32.334-7.678
		c11.787,0.015,18.312,8.628,33.06,6.679c14.75-1.945,41.955,3.472,36.771,9.597
		C2132.402,488.656,2123.028,493.108,2123.028,493.108z"/>
</g>
<g id="Layer_8">
	<g>
		<path fill="#101010" d="M999.518,352.448c-0.438,0.438-0.688,0.675-0.688,0.675C998.99,352.905,999.24,352.679,999.518,352.448z"
			/>
		<path fill="#101010" d="M1246.728,276.478c0,0,26.358-24.407,31.24-29.045c4.883-4.646,7.811-20.99,7.811-20.99
			s1.227,5.736,0.979,7.445c0,0,5.606-11.354,13.668-9.771c0,0-2.563,0.482-4.271,4.396c0,0,12.082-1.708,14.646,0.729
			c0,0-4.521,0.605-5.736,2.069c-1.219,1.465-1.67,11.854-12.203,10.008c0,0,5.125,3.056,7.322,3.056c0,0-4.518,2.688-7.813,2.314
			c-3.295-0.364-8.063-0.483-12.813,4.025c-4.76,4.517-26.851,28.188-26.851,28.188L1246.728,276.478z"/>
		<path fill="#101010" d="M998.83,378.663c0,0,4.396-29.604,10.729-31.396c0,0-7.344,2.938-10.051,5.188
			c2.021-1.979,8.187-8.229,13.468-15.604c5.589-7.809,9.604-17.41,13.995-17.41c0,0-1.021-0.354-5.535,0.979
			c-5.014,1.479-13.651,4.604-15.457,3.566c0,0,18.229-9.602,23.92-18.388c5.693-8.786,48.488-47.675,92.748-47.675
			c8.313,0,18.271,5.218,15.328,12.54c0,0,7.404-5.415-0.354-11.729c0,0,7.541,1.661,8.3,6.678c0.729,4.848-0.813,7.152-2.441,8.781
			c0,0,17.736,4.563,14.979,19.199c0,0-0.25-9.043-15.304-14.969c0,0,18.558,7.811,5.854,44.584c0,0,1.789-16.108-3.092-22.293
			c0,0,0.317,23.595-10.74,29.452c0,0,6.021-9.938,3.418-16.271c0,0-4.701,6.357-12.871,14.413c0.195,1.065,0.461,2.188,0.832,3.15
			c1.104,2.881,14.318,0.498,15.455,0.01c0.299-0.128,0.721,0.979,1.213,2.729c9.828-4.182,26.479-8.905,31.25-9.646
			c6.354-0.979,29.29-14.396,34.902-18.306c5.604-3.906,19.272-14.156,20.015-14.646c0.729-0.483,2.938-3.661,5.125-4.396
			c2.197-0.729,6.354-8.773,7.563-12.19c1.225-3.417,7.317-1.952,10.252-2.938c2.932-0.979,9.521-5.854,12.688-5.605
			c3.182,0.235-5.043,6.611-8.137,10.328c-1.242,1.488,0.563,5.054,0.322,10.896c-0.242,5.854-12.688,13.188-14.896,12.938
			c-2.188-0.244-9.766,11.471-19.271,16.841c-9.521,5.37-23.918,11.478-26.854,14.399c-4.854,4.854-24.396,17.563-34.654,20.729
			c-4.187,1.295-7.127,2.991-9.175,4.563c1.332,1.139,2.319,1.979,2.021,2.604c-0.646,1.313-12.199,12.854-14.978,20.353
			c-0.384,1.024-0.392,2.313-0.136,3.729c4.188,2.813,8.457,6.063,10.548,7.82c4.646,3.896,25.146,26.354,34.172,31.479
			c9.03,5.124,20.021,6.833,25.392,7.813c5.365,0.977-2.438,27.813-5.605,29.285c-3.174,1.467-12.445-5.855-13.016-10.021
			c-0.563-4.146-13.604-16.104-17.021-19.271c-2.313-2.146-18.396-11.95-28.608-18.104c3.327,6.604,8.452,15.154,10.646,18.75
			c3.595,0.621,6.521,1.779,7.72,3.828c1.438,2.459,15.145,32.217,21.313,34.98c6.187,2.769,6.51,12.854,5.521,16.6
			c-0.979,3.743-5.201,20.017-23.756,20.828c-1.521,0.063-3.146,0.228-4.893,0.438c-2.979,7.66-10.729,19.408-10.729,19.408
			s-3.416,12.366,13.021,18.878c16.438,6.509,28.641,32.229,28.641,32.229c7.979,2.771,31.078,24.066,35.804,27.014
			c2.043,1.266,10.896,1.463,13.351,0.646c2.438-0.813,16.271,8.146,18.555,8.944c2.271,0.813,0.32,5.938,0.32,5.938
			c-0.979-0.979-12.854-1.709-12.854-1.709c0.162,2.933,6.834,2.769,6.834,24.396c0,11.438-9.766,28.148-11.879,28.813
			c-2.104,0.646-5.369,0.646-5.854-8.945c-0.483-9.604-4.063-28.149-11.885-40.846c-7.813-12.689-29.771-21.313-29.771-21.313
			c4.396,3.091,12.854,23.271,15.784,25.22c2.928,1.95,7.729,4.036,9.289,4.741c1.563,0.705,1.604,3.396,1.223,5.509
			c-1.646-0.396-3.842-0.313-3.842-0.313s-1.627,2.104,1.141,6.348c2.771,4.229,3.117,19.078,1.951,23.601
			c-2.057,7.962-9.926,20.821-14.971,21.479c-5.047,0.646-6.021-13.021-7.321-19.688c-1.304-6.679,3.091-7.479-1.465-31.079
			c-4.563-23.602-50.115-68.184-61.349-75.018c-11.229-6.834-25.063-14.646-32.701-27.816c-4.313-7.42-5.68-17.673-6.043-25.22
			c-7.021-1.97-14.198-4.931-21.457-9.274c-6.52-3.897-11.396-9.105-8.786-10.731c2.604-1.628,27.979-19.032,34.334-31.397
			c6.346-12.359,4.557-12.039,5.522-14.479c0.271-0.688,2.166-1.938,4.834-3.377c1.731-10.352-0.822-20.763-2.851-26.771
			c-5.346-0.462-9.964-3.456-9.964-6.313c0-2.938,1.146-4.885,0.646-7.152c-0.271-1.231-1.646-3.396-4.35-6.418
			c-10.864,33.927-4.771,61.896-4.771,61.896c-10.435-17.96-5.146-53.563-2.188-68.858c-9.134-8.104-3.502-12.166,2.024-20.951
			c3.508-5.563,8.079-11.6,10.604-17.413c-1.188,0.729-2.386,1.438-3.604,2.117c-25.063,13.987-36.125,77.446-35.479,91.771
			c0,0-7.813-9.771-4.887-27.979c0,0-19.521,27.653,3.257,70.287c0,0-14.646-11.188-16.271-36.673c0,0-8.784,31.146,18.877,60.104
			c0,0-37.433-36.446-33.188-73.229c0,0-7.5,35.801-0.334,58.574c0,0-14.64-32.864-10.396-54.021c0,0-4.563,7.813-5.529,14.975
			c0,0-4.229-28.313-4.229-46.211c0,0-4.886,7.813-5.203,13.666c0,0-2.271-47.188,8.462-57.604
			C1012.01,364.019,999.969,374.106,998.83,378.663z"/>
		<path fill="#101010" d="M895.016,510.782c0,0,0,2.938,2.438,2.938c2.438,0,6.104-0.487,6.353,2.686s6.347,0.244,7.563,0.244
			c1.229,0,9.031,3.661,8.787,0.732c-0.244-2.938,3.66-5.614,4.643-3.906c0.979,1.709,2.438,3.662,3.421,5.127
			c0.979,1.464-1.942,0.487-2.188,2.928c-0.244,2.441,3.174,0.244,3.661,1.709c0.479,1.471-2.938,5.857-1.708,5.857
			c1.221,0,11.959-1.952,14.146-1.464c2.189,0.479,13.669-8.313,16.104-3.661c0,0-3.661-1.953-9.521,3.896
			c-5.854,5.858-8.313,4.646-12.688,6.104c-4.396,1.464-1.221,3.905,0.486,7.077c1.709,3.174-3.904,4.638-3.66,6.836
			c0.244,2.188,5.609-0.244,5.369,4.393c-0.244,4.646,1.221,6.834,4.146,8.299c2.936,1.479,1.952,4.148,2.196,7.322
			c0.244,3.172,1.22-2.438,9.52-5.369c8.313-2.93,46.138-16.843,100.563-3.662c54.428,13.188,141.807-12.438,163.771-40.021
			c0,0,37.521,29.879,50.276,10.007c17.23-26.848,31.896-50.246-5.856-55.719c-16.354-2.37-23.188,4.708-23.188,4.708
			s-8.302-19.771-1.953-43.689c6.349-23.913,6.349-80.54,0.244-82.729c0,0-0.979,16.354-15.865,22.688
			c-14.889,6.354-36.604,15.142-39.296,19.277c0,0,9.03,0.244,10.739,16.108c1.707,15.854-1.069,38.723-0.243,53.207
			c1.709,30.021,9.521,35.146,9.521,35.146s-52.479,44.665-127.396,19.771C1000.457,492.726,937.973,470.027,895.016,510.782z
			 M1246.239,501.024c9.354-3.661,13.424,0,13.424,0s-0.409,10.008-5.362,9.521C1249.341,510.056,1244.002,501.901,1246.239,501.024
			z"/>
		<path fill="#101010" d="M933.459,560.573c0,0-0.854,3.295,1.225,3.539s4.021,3.904,4.021,5.369s0,2.074,0,2.074
			s-3.295,0.977-5.979,2.93c-2.688,1.953-7.322,5.98-7.938,7.938c-0.604,1.938-2.063,1.709-3.052-0.854
			c-0.979-2.563-1.098-5.604-3.051-5.604c-1.952,0-7.322-0.241-4.761-3.188c2.563-2.928,3.416-5.125,5.854-5.125
			c2.438,0,3.661,1.709,7.2-1.83S930.651,560.219,933.459,560.573z"/>
		<path fill="#101010" d="M905.76,563.75c0.521-1.021-0.611-5.729,1.83-5.007c2.438,0.732,5.979,2.66,6.225-0.063
			c0.244-2.734-0.854-4.078-2.563-4.443c-1.709-0.355-4.396-0.244-4.521-1.587s-1.22-4.271-2.438-4.759
			c-1.224-0.488-3.42-1.71-3.538-3.541c-0.107-1.83,0.36-5.613-2.438-6.345c-2.807-0.732-9.03-4.027-10.251-3.539
			c-1.221,0.479-4.422,1.464-2.591,4.146c1.83,2.688,8.813,3.538,14.917,15.742c0.271,0.548-0.188,4.337,0.729,6.835
			C902.189,564.094,904.902,565.427,905.76,563.75z"/>
		<path fill="#101010" d="M908.318,547.031c0,0,0.979,3.173,3.174,3.417c2.196,0.244,5.613,0.122,6.592,0
			c0.979-0.122,2.688-0.854,3.658,0.732c0.979,1.586,3.295,4.271,3.295,4.271s3.42,0.609,3.42-1.709c0-2.313,1.828-4.76,0-6.102
			c-1.83-1.344-6.227-4.15-7.313-4.15c-1.104,0-3.295,0.244-3.906,0.854C916.615,544.952,908.195,544.103,908.318,547.031z"/>
		<path fill="#101010" d="M896.603,517.012c-0.96,0.724-2.196,1.343-1.587,2.807c0.608,1.464,3.725,2.938,4.365,2.563
			c0.639-0.366,4.178-2.318,2.104-3.782C899.406,517.135,898.094,515.888,896.603,517.012z"/>
		<path fill="#101010" d="M897.094,527.263c-0.563,1.063-1.708,2.19,0,3.295c1.708,1.098,7.438,4.637,7.438,5.369
			c0,0.729,1.353,4.146,3.183,3.051c1.821-1.097,5.729-3.295,4.271-3.783c-1.465-0.481-1.465-0.481-1.465-0.481
			s-2.813,0-2.938-2.935c-0.125-2.93,1.953-5.126-0.354-4.516c-2.319,0.604-6.104,0.284-7.078-0.104
			C899.164,526.774,897.823,525.866,897.094,527.263z"/>
		<path fill="#101010" d="M913.845,521.894c-1.499,0.512-3.417,2.928-1.542,4.026c1.874,1.099,5.168,2.438,5.649,3.533
			c0.479,1.104,3.181,4.647,3.771,4.94c0.604,0.294,2.688,4.813,3.418,2.368c0.729-2.438-1.83-3.295-1.952-5.979
			c-0.104-2.688,0.243-8.561-2.063-8.354C918.813,522.625,917.052,520.802,913.845,521.894z"/>
		<path fill="#101010" d="M1285.052,220.344c-0.662,1.986-2.938,0.979-2.195-1.471
			C1283.584,216.436,1286.022,217.412,1285.052,220.344z"/>
		<path fill="#101010" d="M1291.065,196.26c-1.188,0-3.01-3.997-2.604-4.729c1.47-2.604,5.688-3.737,5.688,0
			C1294.156,192.844,1293.51,196.26,1291.065,196.26z"/>
		<path fill="#101010" d="M1315.802,186.01c-2.076-1.104-8.462-1.479-6.515,0.813c1.94,2.278,1.104,4.93,3.063,5.885
			c1.979,0.949,4.568,2.944,5.229,0C1318.239,189.751,1318.892,187.636,1315.802,186.01z"/>
		<path fill="#101010" d="M1315.802,219.444c-2.021,0.563,0.924,4.15,2.334,5.778c1.401,1.628,3.686,3.092,4.822,0.646
			c1.143-2.438,2.271-3.909,4.396-4.479c2.115-0.567-1.301-3.498-2.928-3.903c-1.627-0.401-4.396,0.567-5.369,1.95
			C1318.076,220.829,1317.263,219.038,1315.802,219.444z"/>
		<path fill="#101010" d="M1347.365,227.169c-1.186,0.938-3.418,2.121-2.768,4.231c0.646,2.114,0,2.44,3.741,1.627
			c3.737-0.813,11.185-6.671,10.048-7.811c-1.146-1.146-7.279-2.989-8.908-1.251C1347.853,225.71,1348.862,225.995,1347.365,227.169
			z"/>
		<path fill="#101010" d="M1385.635,210.887c-3.318,0.479-8.463-0.325-7.322-2.604c1.141-2.277,1.469-2.771,3.58-5.854
			c2.113-3.097,4.063-7.646,5.207-5.688c1.139,1.952,5.813,6.352,4.453,8.786C1390.187,207.958,1390.022,210.235,1385.635,210.887z"
			/>
		<path fill="#101010" d="M1347.041,251.445c-0.948,2.104-1.627,4.855,0.813,4.855c2.441,0,5.326-3.04,3.641-4.855
			C1349.806,249.63,1348.509,248.219,1347.041,251.445z"/>
		<path fill="#101010" d="M1342.972,273.874c0,0-3.578,0.482-2.604,3.899c0.979,3.417,1.773,9.112,0.479,10.739
			c-1.303,1.627,2.207,3.255,3.625,2.271c1.42-0.979,3.854,1.071,5.322,0.294c1.467-0.771,1-3.063-0.729-7.292
			C1347.365,279.569,1348.828,273.224,1342.972,273.874z"/>
		<path fill="#101010" d="M1361.522,261.183c3.521-0.629,4.066,2.929,3.254,4.881c-0.813,1.953-5.207,1.146-6.271,0
			c-1.063-1.139-3.479-1.301-7.017-1.301c-3.52,0-1.893-2.116,0-3.58C1353.386,259.719,1356.969,261.997,1361.522,261.183z"/>
		<path fill="#101010" d="M1387.72,277.289c-4.882,2.438-3.744,6.509,0,7.813c3.738,1.302,6.02,3.896,7.811,6.998
			c1.789,3.091,8.949,8.298,7.158,3.253c-1.789-5.043-2.033-6.996,0.285-6.508c2.316,0.479,8.34,4.719,8.987,1.303
			c0.646-3.418-2.604-7.813-6.513-6.672c-3.898,1.138-7.02,0.646-8.146-2.438C1396.181,277.941,1390.957,275.673,1387.72,277.289z"
			/>
		<path fill="#101010" d="M1393.576,239.214c-1.729,1.396-1.146,8.951,2.604,7.486c3.743-1.471,1.463-3.396,4.881-3.646
			c3.418-0.268,7.646-3.188,4.719-5.625c-2.928-2.441-5.604,0.148-7.521,1.627C1396.344,240.517,1396.019,237.263,1393.576,239.214z
			"/>
		<path fill="#101010" d="M1424.01,243.444c-1.271,1.188,3.416,1.146,2.104,4.727c-1.299,3.578-1.772,5.688,2.117,5.854
			c3.904,0.162,5.854-0.063,5.043-4.504C1432.469,245.071,1426.608,241.005,1424.01,243.444z"/>
		<path fill="#101010" d="M1427.906,233.442c-1.518,3.505,3.262,1.541,4.893,4.959c1.625,3.417,3.732,5.854,7.313,3.253
			c3.578-2.603-0.16-5.042,3.096-6.671c3.26-1.627,4.229-6.104,0.979-6.632C1440.93,227.823,1429.218,230.438,1427.906,233.442z"/>
		<path fill="#101010" d="M1364.451,333.916c-2.354,0.779-2.272,3.736,0,6.521c2.271,2.771-0.16,6.834,5.356,6.996
			c5.533,0.149,1.953-8.949,0-11.729C1367.869,332.938,1368.358,332.614,1364.451,333.916z"/>
		<path fill="#101010" d="M1348.179,322.688c-2.27,0.398,0.219,7.158-2.738,9.274c-2.955,2.104-2.317,1.544-5.24,8.339
			c-2.922,6.793-1.62,6.631-5.852,10.047c-4.23,3.418-7.486,9.602-1.951,8.95c5.53-0.651,7.482-7.157,11.389-7.896
			c3.905-0.729,4.396-2.029,6.021,2.688c1.627,4.718,4.063,11.389,6.834,6.834c2.766-4.563,0.161-9.275-3.416-12.53
			c-3.582-3.254-5.695-4.479-3.096-8.095c2.604-3.621,6.021-8.664,4.882-11.919C1353.877,325.135,1350.946,322.2,1348.179,322.688z"
			/>
		<path fill="#101010" d="M1410.502,302.349c-3.049,1.254-1.313,5.205,1.55,5.531c2.848,0.313,4.801-0.979,3.657-2.771
			C1414.567,303.325,1413.265,301.219,1410.502,302.349z"/>
		<path fill="#101010" d="M1469.728,262.646c-1.469,3.28,0.488,7.159,5.209,7.159c4.719,0,9.924-0.813,8.135-4.563
			C1481.281,261.506,1471.844,257.927,1469.728,262.646z"/>
		<path fill="#101010" d="M1428.625,321.061c-2.688,1.205-3.024,6.509,0,9.438c3.021,2.932,4.646,7.976,2.222,15.938
			c-2.441,7.979-7.338,9.881-4.24,16.006c3.1,6.124,6.842,5.646,13.354,2.708c6.521-2.931,13.188-5.688,10.091-12.521
			c-3.097-6.834-2.188-10.251,0.772-13.668c2.965-3.417-1.268-7.322-6.963-7.979c-5.688-0.646-11.389-3.579-11.389-6.834
			C1432.469,320.899,1430.802,320.087,1428.625,321.061z"/>
		<path fill="#101010" d="M1370.281,314.113c-2.409,1.515-3.656,4.396,0,5.614c3.66,1.22,18.23,0.979,18.023-6.591
			s-9.553-13.396-13.787-10.233C1370.281,306.059,1374.188,311.677,1370.281,314.113z"/>
		<path fill="#101010" d="M1423.785,162.269c-0.854,1.469,4.896,0.229,4.84,3.146c-0.063,2.938,4.854,2.696,4.843-1.564
			c-0.021-4.28-2.398-5.744-5.854-4.28C1424.175,161.031,1424.627,160.821,1423.785,162.269z"/>
	</g>
</g>
<g id="Layer_9">
	<g>
		<g>
			<path fill="#101010" d="M910.164,719.01c-0.066-0.165-0.146-0.324-0.181-0.479C909.99,718.531,910.056,718.698,910.164,719.01z"
				/>
			<path fill="#101010" d="M1000.556,776.484c-0.035,0.236-0.063,0.38-0.063,0.38S1000.531,776.76,1000.556,776.484z"/>
			<path fill="#101010" d="M1224.412,1100.364c-0.25-3.25-18.763-9-18.763-9s0.5-2.5,1.75-4s-2-7.25-6.75-11s-27.25-18-38.5-28
				s-46.25-44.75-47.75-49.75s-6.75-5.75-8-10c-2.967-10.088-4,0-14-8.5c-15.406-13.102-55.75-31.25-62.25-32.25
				s-15.75-6.25-17.25-13.25s-0.25-4.25-4.733-4.25c-4.492,0-0.267-2.75-0.017-7.25c0.146-2.387-3.94-3.646-7.813-4.307
				c-1.985-11.297-2.354-25.609-2.354-25.609c5.666-7.167,26.83,3,27.664,10.5c0.838,7.5-7.334,7.666-7.334,7.666
				c10.5,2,19.5-4.666,20.334-14.333s-16.334-18.667-21.666-27.5c-2.688-4.457-2.662-8.396-1.979-11.221
				c5.063,3.036,8.943,5.684,12.313,4.221c3.834-1.666,10.666-5,16.332-2.667c5.668,2.333,11.168,2.5,14.5-0.833
				c3.334-3.333,3.5,0.5,6.834,0c3.332-0.5,12.166-12.167,20.166-22.104c8-9.938,16.5-2.396,20-0.896s2.334-5.334-0.332-12.912
				c-0.729-2.096-0.354-3.563,0.604-4.604l40.229,2.938v0.328c0,0.742,0.604,1.354,1.354,1.354h3.063
				c0.742,0,1.346-0.604,1.346-1.354v-43.989c0-0.729-0.604-1.344-1.346-1.344H1147c-0.734,0-1.354,0.604-1.354,1.344v0.327
				l-54.666,3v2.021l-32,4.729v2.501h-10.164v-2.5h-7.168c0,0-1-3.333-3-3.333c-1.228,0-4.396-0.377-6.666-0.668v-0.874
				c0,0,0.5-2.334-2-2.334c-1.015,0-4.767,0-8.854,0c-0.563-2.646-1.688-5.167-3.979-5.167c-4.83,0-8.83,0-8.83,0v7.126h-2.67
				v12.125h2.67v12.292c0,0-0.334,1.333,1.33,1.333c0.106,0,0.364,0,0.744,0c-2.929,2.581-5.979,5.585-7.908,8.333
				c-2.854,4.097-9.604,6.55-14.396,7.838c-0.012,0-12.438,0.162-10.604-4.838s4.5-5.833,4.5-5.833s7.688,6.563,8.5,3.5
				c2.291-8.5,2.146-12.497,2.66-12.663c0.521-0.167,1.174,0.496,3.174-1.004s1.063-3.758-0.834-5.539
				c-2.146-2.021-3.822-7.127-1.666-9.294c2.166-2.167,1.834-3.5-0.5-7.5s-4.334-7.333-4.334-7.333s8.678-9.167,10.334-3.834
				c1.195,3.837,1.272,5.604,1.229,6.287c0.218-1.467,0.934-6.938,0.012-9.953c-1.063-3.5-8.396,0.166-10.229,1.333
				c0,0,6-5.333,6.334-12c0.325-6.666-14.834-16.334-14.175-24c0,0-2.188,4.564,8,18.834c2.5,3.499-2.491,11.333-4.666,10.999
				c0,0,2.5-5-1-9c-3.5-3.999-18.336-15.833-17.668-20.833c0,0-4.271,4.063,9.504,17.834c1.666,1.666,2.666,6.666,1.828,8.166
				c0,0-10.166-8.834-13.166-16s-17.166-16.666-23-14.666c0,0,12.331,4.833,14.166,13.833c0,0-6.826-8-18.166-7.5
				c-10.933,0.482-26.188-10.042-28.166-14.521c0.666,1.854,3.229,8.729,5.729,11.979c-1.796-1.787-6.002-5.022-11.229-2.789
				c-7,3-31.169,13-47.334-6.667c0,0-1.334,22,32.334,20.5c0,0-6.834,5.167-10.669,5c0,0,7.334,1.333,13.5-0.667
				c6.169-2,13.334,1.5,15.334,3.334c0,0-12-3.834-16.834,2.333c-4.831,6.166-19,13.5-25.332,8.333c0,0,4.332,5.167,8,5.667
				c0,0-12.666,2.172-15.834,5.502c-3.166,3.331-23.334,12.331-26.666,5.831c0,0-2.168,6.167,19,2.167
				c21.166-4,30.334-4.334,31.666-3.5c0,0-14,1.5-17.834,4.166c-3.83,2.667-25.334,11.334-32,7.334c0,0,1,4.666,15.67,2.333
				c14.666-2.333,15.5,0,15.5,0s-7.17-0.333-12.5,3.667c-5.334,4-29.504-2.334-33.17,9.666c0,0,4.504-5.166,16.834-4.333
				c12.334,0.833,38.834,1.333,44,6.833c0,0-7.834,5-10.666,5.834c0,0,50.666,7.333,60.832,6.833
				c0.334-0.017,0.688-0.006,1.063,0.024c-0.038,0.104-0.072,0.219-0.109,0.327c-10.381,1.979-30.68,0.45-41.271,2.271
				c-13.125,2.25-28.375-6.375-28.375-6.375c-12.5,1.25-22.293,17.583-22.293,17.583c-6-1.75-13.207,2.042-25.832,4.167
				c-12.626,2.125-55,2.5-68.125,2.375s-26.75-3.125-29-3.75s-2.25-4.75-6-4.125s-13-3.125-17.75-6.25s-2.875,0.375-2.5,4.875
				s5.375,9.25,6.125,19s16.625,10,16.625,10c-15,1.375-11.25,10.25-10.735,14c0.513,3.75,1.86,11.625,0.235,15.5
				s5.5-1.875,8.375,1.75s7.5,2.375,11.875-0.625s12.625-4.375,12.625-4.375s-21.875,13.25-27.625,14.875s-0.75,7.5-1.625,10.625
				s0.125,8.125,0.875,6.875s9.5-4.625,12.25-5.875s13.625,1.25,16.125-0.5s1.5-4.25,14.625-7.25s52.875-29.75,64.5-37.5
				c10.229-6.828,29.457-0.625,32.291-9.958c0,0,5.834-15.917,23.959-21.417c8.729-2.646,20.375,2.997,28.75-2.625
				c3.438-2.313,28.375,0,28.375,0c-6.5,0.25-24.375,12.25-31.625,16.75s-12.75,10.75-23.125,6s-15,10-19.125,17.875
				c-3.021,5.755-8.25,22.379-17.25,20.689c-18.146-3.405-19.875,3.061-25.875,18.436s-36.25,29.75-46.25,34.875
				s0.625,11.5,3.875,14.5s3.75,7.625,3.75,7.625l8.25,0.375l-4.875,3.5c-0.5,0.375,4.5,5.125,6.521,4.125
				c2.021-1,21.479-20.521,21.479-20.521s-18.334,24.979-21,27.313c-2.669,2.334,6.604,5,6.604,5l9.396-9c0,0-6.666,9.917-10,13.583
				c0.75,2.25,2.75,1.25,5,2.879c3-4.87,5-1.795,7-0.129s10.666-13.333,13.666-17.333s5.168-2,5.168-2
				c3.291-4.667,13.5-23.667,15.166-30.333s4-19,15-24.334s11.313-18.042,15.625-25.25c4.625-7.75,9.709-20.416,19.375-15.416
				S908,863.863,915,853.863c3.524-5.057,8.271-8.229,12.084-10.146c-0.91,7.295-2.646,14.544-5.021,21.96
				c-20.244,17.034-58.896,51.936-74.396,91.186c-5.979,15.114,33.5,48.75,54.25,32.25c10.771-8.573,19.724-31.188,23.188-44.242
				c1.063,1.834,2.089,3.521,3.063,4.993c8.834,13.5,15.896,1.823,18.5-1.667c7-9.333,0.166-4.666-3.666-7.166
				c-3.834-2.5-11.021-13.979,4-29.5c15.166-15.667,17.5-3.834,19.529,6.999c0.354,1.871,0.521,3.438,0.563,4.76
				c-0.908,0.376-2.146,0.447-4.188,0.823c-4.183,0.771-6.5,3-6.5,7.25s4.25,6.5,4.25,6.5c-6-0.25-6.75,5.25-6.75,11s2.5,4.75,7,4
				s5.5,15.75,4,24.5s-1.934,20.046-4.25,22c-9.713,8.188-12.75,17-12.5,19.75s1.5,7-4,2s-5,3.75-11.25,0.25s-10.25,1.75-13.396,4.5
				c-3.149,2.75-20.854-7-33.604-1.25s-14.541,0.396-25.5-2.75c-13.5-3.875-10.75,16.5-13.5,22.75s-10.25-2.25-10,18.75
				s24.5,16.25,28.25,15.75s13.488,9.25,13.488,9.25s3.762,8,1.762,12.25s-1.75,13.5-1.75,13.5s10.25,3.75,20.25,3.75
				s17.938-3.75,17.938-3.75s3.063-1.25,1.313-10.5s-13-12-14-15.25s7.5-7,12.688-8.75c5.172-1.75,27.313-25.5,30.063-28.75
				s6.5,2,15-5.75s46-55.25,49.25-59.5s7.75,1.75,11.25,1.5s0.5-5.25,5-4.75s30.5,31.5,41.25,36.25s13.75,5.25,12.75,9
				s4.25,6.25,6.5,5.5s-2.25,0.75-5,13.25s29.25,48,29.25,48c1.25-3.75,26.5-3,34.5-4s9.75,5.75,9.75,5.75l2.75-1.25
				c0,0,1.25,5.5-1.25,7s-1.25,7.75-1.25,7.75h17.75c0,0,0.229-4.375,1.625-4.375c2.036,0,4.125,4.375,4.125,4.375h40.512
				C1222.912,1108.114,1224.662,1103.614,1224.412,1100.364z M1045.888,810.385c4.62-1.313,9.188-2.438,12.396-3.188h0.713v2.666
				l24.161,3.572c-0.082,1.436-0.161,3.125-0.161,4.262c0,2.334-13.5,8.167-18.166,10.167s-12.334,7.333-13.5,13.833
				c-1.166,6.501-2.666-1.166-5.834-1.166c-3.166,0-3.166,8-5.5,1.5c-0.409-1.145-0.979-2.094-1.666-2.896
				C1047.26,830.397,1046.985,817.677,1045.888,810.385z M1028.582,817.531c1.011-1.438,4.646-3.078,9.191-4.646
				c0.252,11.396-5.063,18.117-10.107,21.825c-0.979-0.146-1.938-0.235-2.834-0.354c-2.604-0.313-6.823-1.001-10.567-1.638
				C1022.31,827.469,1025.488,821.971,1028.582,817.531z M879.53,981.182c-23.616-15.317,2.884-62.317,22.634-80.567
				c3.813-3.511,7.065-6.061,9.872-7.896c-2.354,11.166,0.646,24.248,5.146,35.688C907.138,957.571,879.53,981.182,879.53,981.182z"
				/>
		</g>
		<polygon fill="#101010" points="1156.759,782.24 1153.98,773.656 1145.393,770.885 1153.98,768.11 1156.759,759.523 
			1159.528,768.11 1168.115,770.885 1159.528,773.656 		"/>
		<g>
			<path fill="#101010" d="M1176.656,770.885c0,0,1.066-0.217,2.938-0.495c1.862-0.284,4.524-0.627,7.729-0.947
				c3.199-0.312,6.938-0.585,10.938-0.769c1.999-0.104,4.063-0.169,6.165-0.211c2.1-0.063,4.229-0.064,6.354-0.078
				c2.145,0.014,4.271,0.018,6.357,0.072c2.104,0.021,4.167,0.104,6.165,0.19c4,0.188,7.729,0.455,10.938,0.771
				c3.19,0.313,5.856,0.666,7.729,0.945c1.866,0.271,2.938,0.494,2.938,0.494s-1.063,0.228-2.938,0.496
				c-1.862,0.278-4.521,0.631-7.729,0.944c-3.19,0.313-6.938,0.587-10.938,0.771c-1.998,0.099-4.063,0.181-6.165,0.209
				c-2.104,0.063-4.229,0.063-6.357,0.069c-2.141-0.021-4.271-0.021-6.354-0.074c-2.104-0.043-4.166-0.114-6.165-0.212
				c-3.999-0.188-7.731-0.456-10.938-0.771c-3.188-0.313-5.854-0.661-7.729-0.942
				C1177.729,771.102,1176.656,770.885,1176.656,770.885z"/>
		</g>
		<g>
			<path fill="#101010" d="M1156.759,751.01c0,0-0.229-1.066-0.493-2.938c-0.285-1.854-0.627-4.521-0.947-7.729
				c-0.313-3.199-0.586-6.938-0.771-10.938c-0.104-2-0.168-4.063-0.228-6.166c-0.056-2.1-0.063-4.229-0.063-6.354
				c0.013-2.146,0.018-4.271,0.063-6.365c0.037-2.1,0.119-4.166,0.209-6.164c0.188-4,0.455-7.729,0.771-10.932
				c0.313-3.199,0.666-5.865,0.938-7.73c0.276-1.867,0.498-2.934,0.498-2.934s0.229,1.063,0.498,2.934
				c0.282,1.865,0.646,4.531,0.948,7.73c0.313,3.188,0.588,6.932,0.771,10.932c0.096,1.998,0.177,4.064,0.209,6.164
				c0.063,2.1,0.063,4.229,0.069,6.365c-0.021,2.133-0.021,4.266-0.074,6.354c-0.043,2.104-0.112,4.166-0.214,6.166
				c-0.188,3.998-0.457,7.73-0.771,10.938c-0.318,3.188-0.662,5.854-0.947,7.729C1156.971,749.942,1156.759,751.01,1156.759,751.01z
				"/>
		</g>
		<g>
			<path fill="#101010" d="M1163.49,777.361c0,0,0.4,0.246,1.063,0.713c0.667,0.472,1.596,1.152,2.679,2.021
				c1.08,0.854,2.308,1.895,3.584,3.021c0.64,0.572,1.291,1.188,1.942,1.813c0.646,0.604,1.306,1.262,1.957,1.896
				c0.642,0.65,1.284,1.308,1.896,1.955c0.623,0.649,1.229,1.313,1.794,1.942c1.146,1.271,2.188,2.504,3.041,3.583
				c0.855,1.084,1.542,2.014,2.007,2.68c0.479,0.664,0.721,1.064,0.721,1.064s-0.396-0.245-1.063-0.728
				c-0.666-0.469-1.596-1.146-2.679-2.011c-1.08-0.854-2.313-1.894-3.584-3.041c-0.646-0.563-1.293-1.171-1.941-1.794
				c-0.657-0.617-1.305-1.262-1.956-1.896c-0.642-0.65-1.285-1.313-1.896-1.956c-0.612-0.65-1.229-1.313-1.793-1.942
				c-1.146-1.275-2.188-2.505-3.041-3.585c-0.854-1.082-1.543-2.012-2.018-2.678C1163.737,777.761,1163.49,777.361,1163.49,777.361z
				"/>
		</g>
		<g>
			<path fill="#101010" d="M1128.26,742.679c0,0,0.396,0.246,1.063,0.713c0.667,0.465,1.599,1.152,2.685,2.009
				c1.078,0.858,2.313,1.896,3.584,3.04c0.646,0.572,1.291,1.173,1.938,1.793c0.656,0.617,1.309,1.262,1.957,1.902
				c0.646,0.646,1.286,1.3,1.902,1.956c0.623,0.646,1.221,1.304,1.795,1.938c1.146,1.275,2.183,2.504,3.041,3.584
				c0.854,1.083,1.541,2.021,2.007,2.688c0.467,0.663,0.713,1.063,0.713,1.063s-0.396-0.246-1.063-0.713
				c-0.666-0.465-1.603-1.15-2.685-2.007c-1.08-0.858-2.31-1.896-3.584-3.041c-0.639-0.573-1.293-1.171-1.938-1.794
				c-0.656-0.617-1.313-1.271-1.957-1.903c-0.646-0.646-1.283-1.301-1.899-1.957c-0.62-0.646-1.224-1.304-1.794-1.938
				c-1.146-1.275-2.182-2.521-3.04-3.604c-0.854-1.064-1.543-2.012-2.008-2.678C1128.502,743.073,1128.26,742.679,1128.26,742.679z"
				/>
		</g>
		<g>
			<path fill="#101010" d="M1184.177,742.678c0,0-0.247,0.396-0.714,1.063c-0.479,0.667-1.152,1.604-2.021,2.688
				c-0.854,1.08-1.893,2.308-3.04,3.584c-0.563,0.639-1.173,1.291-1.793,1.938c-0.604,0.656-1.261,1.313-1.896,1.957
				c-0.649,0.646-1.309,1.286-1.954,1.903c-0.649,0.623-1.313,1.22-1.942,1.794c-1.271,1.146-2.504,2.183-3.583,3.041
				c-1.084,0.854-2.014,1.542-2.68,2.007c-0.664,0.467-1.063,0.713-1.063,0.713s0.244-0.396,0.724-1.063
				c0.472-0.667,1.146-1.604,2.013-2.688c0.854-1.08,1.895-2.309,3.041-3.584c0.563-0.638,1.172-1.293,1.795-1.938
				c0.615-0.657,1.262-1.313,1.896-1.956c0.646-0.646,1.313-1.285,1.957-1.901c0.646-0.621,1.313-1.222,1.938-1.794
				c1.271-1.146,2.505-2.181,3.585-3.04c1.082-0.854,2.012-1.543,2.678-2.008C1183.773,742.927,1184.177,742.678,1184.177,742.678z"
				/>
		</g>
	</g>
</g>
<g id="Other">
	<g>
		<path fill="#101010" d="M1733.222,665.052c0,0-28.604,49.004-78,61.75c0,0,52.5-19.25,76.75-102.5c0,0-4.75-30-15.5-37.75
			c0,0-1.74,144.499-112.416,146.688c-1.127-7.103,1.417-11.049,1.417-12.688c0-2.667-3.667-2.334-4.667-2.334
			c-0.35,0,0.143-8.188,4.667-23.166c4.438-14.703,15.817-38.396,18.5-56.127c3.5-23.166,4.97-25.146,4.666-27.207
			c-1.833-12.499-16.167-26.5-24-38.332c-5.997-9.063-22.165-31-25.499-40.5s-7.5-31.354-8.5-31.011
			c-0.662,0.228-1.545-0.646-2.452,1.55c-0.155-0.771-0.688-1.55-2.216-1.55c-0.941,0-0.85,1.306-1.982,4.726
			c-2.479,7.479-5.27,20.336-7.646,26.285c-3.463,8.666-31.538,43.332-38.204,51.666c-4.854,6.063-13.987,17.176-14.968,30.372
			c-0.271,3.628,2.521,7.3,3.301,11.295c0.785,4.063,1.557,8.004,2.416,11.896c-5.244-2.688-12.049-4.396-19.104-4.791
			c-11.666-0.674-7.979-6.771-24.646-13.104c-16.666-6.333-22-14.332-26.334-21.666s5.334-20,10.334-36.666c5-16.667,1-18,0-30
			s10.896-35.365,27.479-38.479c23.354-4.354,33.188-16.521,42.188-30.188c9-13.668,3-23.667,3-23.667
			c-3,14.667-23.667,26.333-28.667,25.667c-12.385-1.652-23.527,6.757-38.334,17.666c-19,14-23.838,26.588-26,36.001
			c-2.479,10.799-9.332,31.666-17.666,47c-9.045,16.643-21.666,0-11,35.666c5.393,18.021-2,29.666,26,57s53.334,28,78.334,22.334
			c9.078-2.063,15.884-1.077,20.892,1.014c0.604,1.092,1.216,2.194,1.859,3.319c2.78,4.854,5.916,8,3,11.667
			c-3.694,4.645-1.084,9,0.916,12.666s7.666,8.334,4.333,11c-1.844,1.474-2.457,5.291-1.969,9.311
			c-1.841-0.104-3.763-0.211-5.782-0.322c-91.251-5.012-116.751,21.271-116.751,21.271c-4.75,2.5-7.75,24.25-7.75,24.25
			c36.977-38.979,103.381-44.216,103.463-44.229c-20.604,3.288-48.699,13.98-80.963,44.229c-34.797,32.604-40.75,71.5-40.75,71.5
			c3.75,17.5,19,26,19,26c-4.5-23.5-5.068-40.748,4-57.25c42.521-77.375,106.045-81.94,126.44-81.253
			c0.563,1.797,1.375,3.479,2.395,4.837c4,5.334,4.333,11.666,1,18.666s-12.333,13.667-17,24.334s-9.667,14.999-17.001,17.331
			c-7.332,2.334-1.332,10-4.666,11s-7.334,3.334-7.666,9.668c-0.334,6.332-7.668,7-7.668,13s4.334,5.332,4.334,5.332
			s-5.334,11.334-10.666,19c-5.334,7.666-8,15.672-0.668,21.334c15.885,12.268,47.668-2,58.001-4.666
			c10.333-2.668,25.333,1.332,29.667,5c4.334,3.666,12.354,24.203,14.666,24.666c1.384,0.271,2.384-0.479,3.104-1.691
			c0.089,2.931,0.188,7.136,0.313,12.063c-22.745,26.182-24.379,52.104-25.761,57.636c-1.667,6.666,1.667,16.332,2.334,9.666
			c0.896-8.988,10.09-23.188,24.146-36.254c0.287,12.963,0.521,24.007,0.521,25.92c0,4.666-0.666,13.332-1.332,20.332
			s-4,4.668-4.334,11.334c-0.334,6.668,10,7.666,15,7.666s9.334-3,13-5s-2.666-10.666-6-17.666s1.334-39.666,2.334-47.666
			c0.225-1.745,0.521-5.427,0.854-10.2c11.381-6.846,22.777-11.125,31.813-19.8c13.834-13.291,23.104-25.078,26-27.666
			c9.668-8.666,13-14.334,7.095-50.068c-0.938-5.658-6.354-15.56-7.761-20.266c-2.858-9.563-4.528-16.787-9.157-23.229
			c-13.146-18.271-30.982-26.428-39.511-38.438c-2.841-4.009-4.741-7.559-5.979-10.673c15.625-0.229,67.688-2.663,103.646-24.745
			C1709.472,714.802,1733.222,686.302,1733.222,665.052z M1573.806,846.885c-1.104,0.663-0.893,2.5-0.522,4.245
			c-2.348-1.479-5.862-0.028-9.311,0.922c-4.833,1.334-1.333,3.166-17.667,2.166s-27.666,3.5-27.666,3.5s13.5-11.833,17.5-16.5
			s8-1,9.333-2s1.667-4.333,3.833-1.166s6.167,1.166,8.334-3.5s4.5,2.333,9.833,0.166c0.899-0.366,1.725-0.54,2.479-0.604
			c0.856,2.563,2.521,5.688,3.021,8.104C1573.832,846.219,1575.473,845.885,1573.806,846.885z M1595.082,649.031
			c-4.45-3.187-10.146-5.255-12.938,1.854c0,0,2.762-13.253,3.834-16.667c6.333-20.166-5.334-41.166-21.334-41.166
			c-12,0-19.771,11.873-20.822,25.5c-0.35,4.541,0.157,14.172,1.357,17.098c2.429,5.922,5.466,8.735,6.299,12.735
			c0.536,2.563-2.442,2.216-4.549,6.354c-2.054,0.338-2.886-4.102-1.118-7.188c2-3.5-1-2.666-3.833-3.5s-3-4.5-4.167-11.333
			s-3.333-3.333-5.333-3s-6.5-8.667-8-12.833c-0.86-2.396-0.667-8.667,9.333-21.5c9.202-11.813,26.334-42.168,31.167-49.168
			c1.737-2.521,2.547-5.658,2.873-8.65c0.364,1.781,0.784,3.402,1.261,4.773c2.667,7.666,17.199,38.878,30.366,55.045
			c13.167,16.166,9.794,13.646,6.833,19.999C1603.375,623.677,1596.134,633.594,1595.082,649.031z M1607.139,874.552
			c0.479-4.188,5-12,3.667-14.666s-5.333-5.334,3.166-7.667s4.834-6.333,3.167-8.544s1.667-2.456-2-8.123
			c-1.678-2.604-2.729-7.354-3.371-11.743c10.712,14.946,21.712,42.291-5.986,68.631
			C1606.332,884.152,1606.819,877.315,1607.139,874.552z"/>
		<path fill="#101010" d="M1661.927,757.885c-1.979,1.976,8.659-1.237,17.317,3.182c8.649,4.419,12.373,11.667,20.146,13.788
			c7.771,2.122,8.479-0.707,8.479-0.707s-6.541-1.942-9.021-5.126c0,0,5.553,1.652,11.844,1.001
			c6.214-0.641,22.396,2.479,21.396,7.131c0,0,1.938-9.369-7.067-12.729c0,0,8.841-4.604,17.146-1.944
			c8.313,2.652,18.021,1.063,22.811-4.419c0,0-3.188,0.354-6.72-1.768c-3.534-2.121-6.724-3.188-7.775-2.121
			c0,0,6.724-5.658,11.668-3.896c4.948,1.771,12.373-10.604,16.088-9.369c3.716,1.237,9.552-0.354,13.608-4.419
			c0,0-5.834-0.178-7.428-2.476c-1.601-2.298,0-4.95,3.007-6.54c3.007-1.592,9.368-5.834,9.368-11.845
			c0-6.021,4.418-5.833,8.134-6.729c3.714-0.885,5.834-4.421,5.834-5.479c0,0-6.729,6.011-6.188,1.229
			c0.525-4.771,3.896-9.188,7.248-10.771c3.354-1.604,2.646-8.313,5.479-7.604c0,0-3.188-1.768-5.834,0.896
			c-2.648,2.646-1.413-2.121-0.707-7.438c0.707-5.303,1.412-8.479,1.938-12.551c0.527-4.063,4.947-8.481,7.156-12.993
			c0,0-9.983,4.514-8.569-1.854c1.413-6.361,7.604-14.68,4.243-19.104c-3.354-4.42,2.117-16.269-4.243-18.39
			c0,0,3.014,5.834-1.938,6.541s-17.36-8.439-12.748-21.896c0,0-7.401,8.475,0.189,21.367c7.604,12.899,1.063,25.456-6.188,18.915
			c0,0,0.521,5.834,4.418,9.365c3.896,3.533-3.688,3.354-0.521,20.688c1.408,7.771-11.484,14.492-13.604,7.604
			c-2.738,4.146,6.536,23.518,1.938,28.461c-4.603,4.95-12.896,13.266-12.188,5.833c0.707-7.424-3.188,7.774-3.188,14.496
			c0,6.72-15.201,14.496-21.396,13.604c-6.188-0.888-10.438-1.229-13.077,1.063c0,0,7.604,1.229,0.354,7.063
			c-7.248,5.834-14.146-1.409-22.104,6.896c0,0,7.604,0.886,2.479,4.604c-5.125,3.716-17.322,1.771-22.979-2.119
			C1685.076,753.469,1665.457,754.348,1661.927,757.885z"/>
		<path fill="#101010" d="M1497.953,707.719c-1.771,1.938-5.936-2.74-8.479-2.829c-2.564-0.088-8.662-1.414-9.9-0.707
			c-1.23,0.707-4.148,1.503-5.744,0.796c-1.592-0.707-4.42,0-5.479,0.884c-1.063,0.884-7.604-2.828-10.873-1.503
			c-3.271,1.326-6.63,3.447-12.554,1.237c-5.925-2.209-8.841-1.944-13.173,0.089c-4.327,2.033-7.771,7.602-10.438,4.596
			c-2.646-3.005-9.281-4.146-11.578-1.854c-2.299,2.298-5.746,2.021-7.688,3.093c-1.938,1.063-2.563,3.624-3.715,4.771
			c-1.146,1.146-4.771,2.646-9.813,3.101c-5.039,0.438-3.188,3.354-3.354,5.834c-0.188,2.475-1.063,4.419-6.813,3.977
			c-5.744-0.438-12.021,2.479-12.104,6.813c-0.098,4.328-1.063,3.354-4.947,6.718c-3.896,3.354-9.273,9.635-6.012,13.082
			c3.271,3.441-2.396,2.736-1.688,7.862c0.707,5.128,10.164,5.396,2.209,13.351s-9.162,19.121-2.459,22.646
			c6.703,3.521,1.487,5.021,2.371,8.729c0.885,3.712,10.163,6.813,8.396,11.399c-1.771,4.599-5.563,12.104-11.847,10.073
			c-6.271-2.029-9.457,0.091-15.202-4.604c-5.742-4.686-3.688-11.781-0.438-17.589c2.007-3.584,0.887-5.479-1.236-9.729
			c-2.121-4.229-8.043-9.641-2.563-17.398c5.479-7.778,10.758-17.313,6.356-16.271c-1.854,0.441-3.004-2.829,0.185-7.248
			c3.187-4.419,0.438-10.519,1.771-14.673c1.328-4.146,5.127-8.131,8.043-8.043c2.918,0.088,7.862-6.629,8.928-9.458
			c1.063-2.828,5.039-1.854,8.482-3.182c3.438-1.325,7.563-3.206,3.625-6.275c-1.595-1.229-2.119,2.828-3.716,2.298
			c-1.59-0.521-4.518-3.624-0.795-6.271c3.713-2.651,12.463-2.21,16.354-2.74c3.893-0.53,8.662-1.237,9.547-4.242
			c0.887-3.006,10.604-4.771,14.316-4.42c3.715,0.354,7.426-0.884,8.84-3.005c1.412-2.121,0.09-8.22,5.127-8.662
			c5.037-0.438,3.532,6.364,6.104,8.396c2.563,2.021,5.652,2.813,10.347,2.21c4.688-0.617,11.229-5.229,16.892-2.563
			c5.646,2.652,8.479,3.536,11.844,3.006c3.354-0.521,9.988-1.68,11.938-0.089c1.938,1.591,4.231,3.188,6.541,3.006
			c2.298-0.178,2.563-3.978,6.809-1.146C1494.595,704,1499.809,705.677,1497.953,707.719z"/>
	</g>
</g>
</svg>
