<?xml version="1.0" encoding="utf-8"?>
<!-- Generator: Adobe Illustrator 16.0.0, SVG Export Plug-In . SVG Version: 6.00 Build 0)  -->
<!DOCTYPE svg PUBLIC "-//W3C//DTD SVG 1.1//EN" "http://www.w3.org/Graphics/SVG/1.1/DTD/svg11.dtd">
<svg version="1.1" id="Layer_1" xmlns="http://www.w3.org/2000/svg" xmlns:xlink="http://www.w3.org/1999/xlink" x="0px" y="0px"
	 width="2500px" height="500px" viewBox="0 0 2500 500" enable-background="new 0 0 2500 500" xml:space="preserve">
<path fill="#101010" d="M1101.35,68.604c0,0-4.013,47.919-19.298,72.995c-4.674,7.668-17.396,14.569-17.396,14.569
	s-9.156,20.33-9.156,31.33c0,17.655-28.521,10.896-18.5,31.5c0,0-2.5,9-2.5,21s-6.021,19.688-6.021,19.688
	s-3.082,15.007-3.082,26.007c0,5.484-6.313,19.192-11.036,13.326c-4.751-5.896-1.357-10.521-8.492-10.051
	c-5.273,0.348-2.975,14.087-4.921,27.825c-1.944,13.734,1.156,26.252-6.895,25.729c-4.604-0.299-15.22,22.313-15.22,22.313
	s-13.66,5.579-19.082-3.622c-5.127-8.688-10.17-4.37-16.211-9.04s-14.961,11.058-18.16,15.075
	c-1.771,2.225-4.404,8.313-14.681,14.716c-6.163,3.84-15.075,12.352-28.2,11.039c0,0-7.314-5.136-14.447-10.071
	c-6.063-4.196-11.993-9.696-13.187-15.684c-2.188-11.016-5.233-24.805-8.341-37.388c-4.657-18.877-9.434-35.038-11.601-35.038
	c-2.161,0-14.444,1.715-14.444-8.318c0-28.503-7.071-15.003-8.163-30.729c-1.29-18.567,7.659-30.489,8.185-41.271
	c0.575-11.896-7.231-22.404-8.185-38.785c-0.789-13.627-12.744-9.018-18.815-19.215c-7.85-13.177-21-12.579-21-26.079
	s-11.871-16.133-18-21.59c-5.5-4.896-7.25-9.205-24.582-9.205c-4.521-19.229,37.187-41.054,37.187-41.054L1101.35,68.604z"/>
<path fill="#101010" d="M1070.306,104.962l13.301,11.938c0,0,5.688,13.396,10.189,13.396c2.813,0,8.217-6.329,12.96-1.563
	c4.739,4.768,4.799-3.938,5.549-8.438c2-12,3.334-16.666,4.667-20s4.667-4,4.667-4l6.666-15.24l-48.666-12.094L1070.306,104.962z"/>
<path fill="#101010" d="M1143.144,89.545c-7.146,4.672,21.932,0.561,27.707,3.498C1176.627,95.983,1154.281,82.265,1143.144,89.545z
	"/>
<path fill="#101010" d="M1584.875,85.331c0,0,64.771,20.821,73.521,34.101c3.483,5.282,2.252,13.966,2.047,22.582
	c-0.213,8.939,8.128,16.989,9.093,22.738C1670.502,170.501,1689.5,177,1689.5,177s33.352-7.501,32.927-15.75
	c-0.208-4.053,3.56-10.329,8.39-15.75c5.004-5.618-6.313-10.667,15.188-10.667s11.938,7.674,18.016,15.268
	c5.302,6.627,9.484,12.898,9.484,12.898s22.5,14,23.188-11.696c-5.191-14.303,13.85-7.39,18.309-12.803
	c4.34-5.271,3.389-14.862,8.666-18.271c5.414-3.49,12.277-0.313,19.334-0.729c21.008-1.238,13-33.666,69.43-9.772
	c1.833-2.439-1.93-13.228,5.07-20.228s-63.168-82.008-117.313-72.173C1731.918,29.726,1583.123,61.533,1584.875,85.331z"/>
<path fill="#101010" d="M2062.407,76.731c41.752-8.479,168.498-14,205.699-14s105.037,14,105.037,14s122.545-2.37,107.229,14.813
	c-15.318,17.186-153.252,8.688-161.938,14.188s-70.896,4.138-102.146,6.391c-14.539-5.56-27.513,1.979-37.904,2.609
	c-32.824,2-67.838,8-91.906,0C2062.407,106.731,2003.326,88.731,2062.407,76.731z"/>
<path fill="#101010" d="M2449.498,70.745c1.961,18.106-9.754,31.239-9.754,43.748c0,12.507-11.805,14.824-19.137,21.203
	c-6.406,5.575-9.643,17.641-20.126,15.973c-10.479-1.668-28.364,13.664-28.364,26.248s-14.379,17.056-19.854,21.313
	c-5.478,4.261-13.522,24.188-19.762,25.77c-10.379,2.629-38,22.5-38-12c0-14.5-10.871-15.52-24-18.5
	c-2.802,6.53,0.262,13.902-5.702,19.869c0,0-24.298-3.628-24.298-9.369c0-10.763-8.308-27.903-2.916-35.812
	c3.439-5.046,7.317-10.171,7.773-15.228c1.078-11.947-3.827-2.403-20.36-9.465c-5.972-2.552-6.507-20.509-16.5-25.727
	c-5.918-3.087-34.683-0.63-40.998-3.261c-33.862-14.104-51.239-23.433-34.071-40.797
	C2153.805,54.116,2442.948,10.317,2449.498,70.745z"/>
<path fill="#101010" d="M2033.654,88.854c0,0-6,12.535-15,11.751s-18.5,0.854-23,0.032s-8.5,2.07-11.5,0.232
	c-3-1.843-15,1.52-16.5,0.618c-1.5-0.896-6.5-12.645-6.5-12.645s-17.5,3.396-19,6.396s-8,6.403-8,6.403h-8l-6-6.403
	c0,0-8.5,8.235-11,6.403c-2.5-1.834-12-6.269-12-6.269s-11,1.85-13,0c-2-1.854-31.5-1.854-31.5-1.854l-11.5,8.385
	c0,0-24.5-7.303-34.5,0s-16,0-16,0l-16.5,0.793l-8-6.932l-12.5-2.246c0,0-16.5,0.896-18.5,0.447s38.5-8.803,38.5-8.803l159-18.669
	l72,8.237L2033.654,88.854z"/>
<path fill="#101010" d="M1588.859,71.921c0,0,21.679,12.717,32.982,17.2c4.141,1.646,29.632,23.563,22.913,20.197
	c-8.305-4.158-12.27,6.649-14.089,10.015c-1.284,2.371-9.171,3.211-11.166,6c-2.748,3.841-2.982,9.3-5.969,12.071
	c-2.661,2.476-5.159,4.095-7.031,4.095c-2.421,0-6.716-4.655-11.475-9.952c-2.271-2.528-1.362-9.165-3.693-11.548
	c-3.884-3.972-10.925-3.171-13.832-3.502c-2.841-0.322-5.916-6.999-8.5-6.998c-3.286,0.002-5.984,6.758-8.637,7.014
	c-6.228,0.598-5.197,5.986-10.197,5.986s-2.38-6.285-4.791-6.984c-1.52-0.438-9.043,1.188-9.043-1.016
	c0-11-1.096-7.991-4.666-11.333c-1.821-1.705-9.905,1.606-14.666-1.333c-2.28-1.41-2.43-5.722-5.186-6.667
	c-2.756-0.946-5.717-1.542-8.814-1.542c-12.666,0,46.668-21.703,46.668-21.703H1588.859z"/>
<path fill="#101010" d="M1473.844,90.607L1465,100l-11-2.497c0,0-6.519-0.232-10.318,3.568c-3.803,3.805-10.766-4.958-10.766-4.958
	S1421,102.21,1416.5,106.71s-4.094-6.815-4.094-6.815L1403,99.628l-3.701,9.267c0,0-2.299,1.626-9.799,1.626
	s-12.928-6.686-12.928-6.686s1.696,8.048-3.572,9.664c-1.836,0.563-8.857-4.765-11.136-4.472c-2.991,0.386-7.317-5.963-10.864-6.528
	c-4.801-0.769-7.559,4.163-10.563,2.626c-5.755-2.938-9.141,0.673-11.438,1.584c-1.223,0.482-5.48-6.188-11-6.201
	c-10.271-0.028-23.582-0.614-23.582-0.614l-22.725-3.774l-14.02-8.635l129.387-6.021L1473.844,90.607z"/>
<path fill="#101010" d="M1057.531,119.177c0,0,20.813-10.931,30.945-13.521c10.132-2.59,41.396-12.466,41.396-12.466l21.63,2.021
	c0,0,9.938,3.782,12.332,9.958c1.09,2.803,5.75,6.482,7.215,9.581c2.783,5.897,6.188,11.783,9.951,15.549
	c3.646,3.646,14.834,4.538,14.834,4.538l7.332-11.667c0,0,12.668-5.899,13.643-6.448c0-3.039,9.979,3.573,14.193,2.779
	c4.219-0.794,2.671-8.994,7.972-8.602c8.963,0.667,17.232,2.278,17.232,2.278l9.296-6.468l19-2.71c0,0,25.163,1.948,26.002-3.588
	c0.839-5.533-24.433-14.254-33.916-14.206c-9.479,0.044-100.019,4.646-100.019,4.646l-81.988,1.234l-37.05-3.229V119.177
	L1057.531,119.177z"/>
<path fill="#101010" d="M799.653,94.975c-10.373-0.943,12.293,18.854,0.638,12.646c-16.668-8.877-59.102-6.324-61.931-5.242
	c-2.829,1.08-25.523-2.965-32.563,0c-7.039,2.968-46.646-2.943-49.478-7.529c-2.829-4.59,25.46-16.437,25.46-16.437L799.653,94.975z
	"/>
<path fill="#101010" d="M666.984,85.227c-4.201,1.646-29.914,25.479-39.097,22.609c-9.187-2.866-29.388-8.499-33.063-7.278
	c-3.674,1.218-25.713-1.221-28.468,0c-2.755,1.218-34.896-4.128-34.896-4.128l-14.69-14.616L666.984,85.227z"/>
<path fill="#101010" d="M533.156,84.795c0,0-28.906,10.569-33.627,12.514c-4.72,1.938-19.469,9.229-21.829,7.438
	c-2.356-1.783-23.598,0-23.598,0s-12.389-4.708-24.188-7.438c-11.8-2.729-32.444-2.729-32.444-2.729s-21.628,6.917-26.548,10.17
	c-4.922,3.253-17.813,0-17.813,0L340.39,93.28c0,0-42.525,6.762-47.936,4.027c-5.409-2.729-8.261-12.514-8.261-12.514
	L533.156,84.795L533.156,84.795z"/>
<path fill="#101010" d="M291.697,89.153c0,0-21.5-1.673-26.5,1.014s-30,5.968-37,10.21s-7.5,13.523-16.5,14.146
	s-29,12.611-37.5,12.496c-8.5-0.119-18.5-8.931-23.5-7.929c-5,1-17,1.475-19,0c-2-1.476-17-4.959-23-11.259
	c-6-6.304-13.5-6.649-17.5-8.021s-22,1.988-24.5,0c-2.5-1.99-14.5-3.229-20-3.229s-23.5-2.739-27.5-3.229c-4-0.493-7-7.002-7-7.002
	l35.5-7.929l129-10.064L279.8,74.31L291.697,89.153z"/>
<path fill="#101010" d="M2191.521,86.156c-19.357,2.543,44.646,22.881,53.633,34.663
	C2254.145,132.606,2221.693,82.189,2191.521,86.156z"/>
<path fill="#101010" d="M2218.48,65.235c-14.658-12.902,12.146,48.669,9.189,63.194
	C2224.709,142.951,2241.313,85.346,2218.48,65.235z"/>
<g id="Layer_5">
	<rect x="0" y="-3.376" fill="#101010" width="2500" height="97"/>
</g>
</svg>
