<?xml version="1.0" encoding="utf-8"?>
<!-- Generator: Adobe Illustrator 16.0.0, SVG Export Plug-In . SVG Version: 6.00 Build 0)  -->
<!DOCTYPE svg PUBLIC "-//W3C//DTD SVG 1.1//EN" "http://www.w3.org/Graphics/SVG/1.1/DTD/svg11.dtd">
<svg version="1.1" xmlns="http://www.w3.org/2000/svg" xmlns:xlink="http://www.w3.org/1999/xlink" x="0px" y="0px" width="2500px"
	 height="1200px" viewBox="0 0 2500 1200" enable-background="new 0 0 2500 1200" xml:space="preserve">
<g id="Layer_6">
	<g>
		<g>
			<rect width="2500" height="1200"/>
		</g>
	</g>
</g>
<g id="Layer_7">
	<circle fill="#FFFFFF" cx="1749.85" cy="601.115" r="555.62"/>
	<path fill="#C11717" d="M2500,762.896c-12.112,2.207-24.664,4.494-37.643,6.859c-51.074,9.377-108.696,19.955-171.557,31.495
		c-62.846,11.622-130.928,24.213-202.938,37.53c-71.992,13.406-147.912,27.545-226.45,42.171
		c-78.52,14.717-159.657,29.925-242.104,45.379c-17.699,3.337-35.469,6.688-53.275,10.044c-3.194-3.082-6.379-6.155-9.589-9.253
		c-45.875-44.139-93.278-89.749-141.447-136.095c-48.229-46.28-97.226-93.296-146.222-140.312
		c-49.075-46.933-98.15-93.865-146.459-140.064c-24.175-23.078-48.159-45.973-71.854-68.592c-0.669-0.637-1.332-1.269-2-1.906
		c33.967-17.098,68.028-34.244,102.097-51.393c77.888-39.335,155.777-78.671,232.448-117.393
		c76.632-38.8,152.047-76.985,225.029-113.938c72.94-37.038,143.448-72.84,210.311-106.791
		c34.148-17.393,67.338-34.298,99.421-50.639h-14.679c-28.559,14.253-57.958,28.927-88.104,43.973
		c-67.054,33.57-137.765,68.972-210.914,105.594c-73.106,36.707-148.649,74.637-225.411,113.179
		c-76.722,38.621-154.662,77.856-232.602,117.09c-35.092,17.723-70.178,35.443-105.158,53.11
		c-20.449-19.487-40.687-38.772-60.623-57.771c-46.132-43.87-90.727-86.277-133.015-126.491c-3.018-2.86-6.02-5.707-9.014-8.544
		c-1.407-13.623-2.784-26.963-4.128-39.975c-1.868-17.725-3.673-34.85-5.406-51.291c-3.512-32.876-6.732-63.013-9.586-89.724
		c-2.432-22.223-4.604-42.064-6.473-59.151h-2.25c1.424,17.178,3.079,37.143,4.934,59.515c2.288,26.766,4.87,56.964,7.686,89.907
		c1.432,16.469,2.923,33.625,4.466,51.38c0.926,10.401,1.873,21.031,2.834,31.827c-36.114-34.233-70.422-66.755-102.418-97.086
		c-37.02-34.977-70.955-67.039-101.034-95.457C611.666,25.765,597.445,12.374,584.304,0h-4.046
		c13.508,13.164,28.194,27.476,43.97,42.849c29.684,28.831,63.174,61.357,99.708,96.84c33.436,32.367,69.424,67.205,107.37,103.938
		c0.359,4.029,0.719,8.07,1.082,12.148c3.384,37.732,6.899,77.528,10.735,118.676c1.896,20.576,3.823,41.496,5.774,62.672
		c1.976,21.174,3.976,42.605,5.992,64.208c0.771,8.129,1.544,16.289,2.319,24.462c-57.242,28.985-113.623,57.534-168.622,85.383
		c-39.38,19.997-78.042,39.63-115.813,58.81c-28.458-23.637-56.823-47.196-84.877-70.498
		c-20.272-16.799-40.384-33.465-60.254-49.931c-19.889-16.444-39.536-32.688-58.861-48.667
		c-38.692-31.904-76.095-62.746-111.563-91.991c-17.75-14.603-35.018-28.808-51.719-42.548c-14.256-11.685-28.098-23.029-41.482-34
		c7.436-14.652,14.844-29.251,22.188-43.724c3.425-6.751,6.836-13.475,10.23-20.166c3.369-6.703,6.721-13.373,10.052-20.002
		c6.664-13.259,13.246-26.357,19.721-39.241c12.989-25.747,25.384-50.717,37.166-74.382c5.885-11.835,11.609-23.348,17.146-34.484
		c5.502-11.154,10.818-21.931,15.921-32.277c10.233-20.678,19.518-39.682,27.742-56.528c1.932-3.973,3.802-7.821,5.615-11.549
		h-3.787c-1.699,3.182-3.444,6.45-5.238,9.811c-8.802,16.552-18.726,35.23-29.448,55.659c-5.375,10.207-10.973,20.84-16.767,31.845
		c-5.759,11.023-11.713,22.418-17.834,34.134c-12.229,23.437-25.155,48.137-38.36,73.773c-6.622,12.808-13.355,25.83-20.17,39.011
		c-3.408,6.591-6.836,13.222-10.282,19.886c-3.42,6.677-6.858,13.388-10.309,20.125c-7.076,13.816-14.209,27.747-21.37,41.73
		c-30.722-25.121-58.902-48.164-83.903-68.606c-25.281-20.582-47.32-38.524-65.47-53.301c-2.353-1.905-4.638-3.755-6.859-5.554
		v2.304c1.821,1.558,3.677,3.146,5.586,4.779c17.824,15.168,39.468,33.586,64.294,54.713c24.871,21.073,52.931,44.848,83.542,70.785
		c0.043,0.037,0.087,0.074,0.131,0.111c-5.921,11.563-11.856,23.152-17.794,34.748c-13.918,27.431-27.836,54.861-41.537,81.864
		c-6.869,13.491-13.621,26.908-20.275,40.171c-6.664,13.259-13.247,26.357-19.723,39.24c-12.99,25.746-25.375,50.722-37.164,74.383
		C11.205,613.387,5.51,624.843,0,635.927v14.306c1.929-3.664,3.874-7.357,5.85-11.111c5.76-11.022,11.714-22.418,17.836-34.133
		c12.223-23.44,25.159-48.134,38.363-73.771c6.622-12.809,13.354-25.831,20.169-39.013c6.824-13.177,13.715-26.522,20.598-40.007
		c13.803-26.95,27.825-54.328,41.847-81.706c5.546-10.929,11.088-21.85,16.62-32.752c12.898,10.903,26.22,22.165,39.935,33.757
		c16.542,13.932,33.644,28.335,51.225,43.142c35.196,29.574,72.311,60.76,110.706,93.022c19.219,16.105,38.758,32.479,58.538,49.054
		c19.797,16.553,39.835,33.308,60.034,50.196c26.93,22.465,54.147,45.168,81.457,67.949c-28.865,14.658-57.199,29.046-84.898,43.111
		c-66.82,34.033-129.995,66.21-188.311,95.912c-58.278,29.776-111.7,57.071-159.051,81.264
		c-47.32,24.255-88.573,45.4-122.546,62.813c-2.843,1.463-5.63,2.897-8.37,4.308v2.033c3.024-1.494,6.111-3.019,9.261-4.574
		c34.202-16.961,75.732-37.557,123.37-61.181c47.607-23.686,101.317-50.407,159.91-79.56
		c58.556-29.226,121.991-60.887,189.086-94.375c28.77-14.403,58.216-29.145,88.236-44.174c11.473,9.57,22.959,19.152,34.446,28.734
		c41.151,34.177,82.301,68.354,122.809,101.998c20.274,16.797,40.388,33.461,60.26,49.924c19.889,16.444,39.535,32.689,58.86,48.668
		c17.917,14.772,35.541,29.305,52.84,43.568c1.928,18.833,3.833,37.282,5.681,55.253c1.852,17.937,3.653,35.392,5.401,52.323
		c-10.894,2.081-21.746,4.154-32.543,6.217c-78.451,15.083-154.287,29.664-226.2,43.49
		c-71.896,13.918-139.871,27.076-202.617,39.223c-62.73,12.229-120.233,23.438-171.201,33.374
		c-31.033,6.093-59.627,11.707-85.519,16.79h14.706c22.097-4.025,45.993-8.379,71.525-13.03
		c51.074-9.376,108.696-19.953,171.557-31.492c62.845-11.622,130.927-24.213,202.937-37.529
		c71.993-13.407,147.912-27.547,226.45-42.173c10.565-1.98,21.182-3.971,31.838-5.969c1.632,15.48,3.215,30.488,4.742,44.965
		c3.246,31.053,6.332,59.649,9.103,85.229h3.949c-2.163-25.734-4.593-54.522-7.336-85.778c-1.275-14.685-2.598-29.918-3.963-45.632
		c32.626-6.117,65.656-12.309,99.006-18.561c14.219,11.677,28.016,23.007,41.332,33.942c31.059,25.397,59.529,48.679,84.765,69.314
		c21.637,17.617,40.891,33.294,57.372,46.714h3.402c-16.62-14.142-36.211-30.812-58.338-49.64
		c-24.872-21.072-52.932-44.847-83.543-70.782c-11.904-10.043-24.198-20.416-36.835-31.077
		c31.949-5.989,64.176-12.031,96.611-18.111c82.429-15.543,166.167-31.332,249.904-47.122
		c64.516-12.255,129.023-24.509,192.939-36.65c41.218,39.195,81.141,77.159,119.185,113.337
		c42.352,40.146,82.394,78.104,119.354,113.142c9.711,9.175,19.203,18.144,28.475,26.904h7.432
		c-10.367-10.068-21.02-20.414-31.952-31.031c-36.593-35.423-76.234-73.798-118.164-114.386
		c-36.418-35.144-74.563-71.953-113.93-109.941c15.537-2.951,31.049-5.897,46.502-8.833
		c82.392-15.742,163.476-31.234,241.944-46.227c78.45-15.085,154.286-29.666,226.199-43.493
		c71.896-13.917,139.871-27.075,202.617-39.222c62.73-12.228,120.233-23.436,171.201-33.371c12.727-2.498,25.045-4.916,36.936-7.25
		V762.896z M851.866,373.61c-4.074-41.125-8.207-80.861-12.075-118.547c-0.124-1.202-0.246-2.383-0.37-3.581
		c0.894,0.865,1.782,1.726,2.678,2.593c41.993,40.521,86.276,83.253,132.087,127.459c19.075,18.368,38.426,37.002,57.975,55.826
		c-39.725,20.063-79.297,40.049-118.548,59.873c-15.758,7.979-31.461,15.931-47.106,23.853c-0.673-6.906-1.346-13.803-2.016-20.678
		c-2.137-21.591-4.257-43.011-6.352-64.173C856.02,415.074,853.925,394.171,851.866,373.61z M851.856,903.011
		c-19.219-16.104-38.759-32.478-58.539-49.053c-19.796-16.556-39.832-33.312-60.029-50.202
		c-40.434-33.731-81.51-67.998-122.586-102.266c-10.395-8.634-20.789-17.268-31.173-25.893
		c36.884-18.465,74.607-37.352,113.012-56.578c54.04-27.131,109.413-54.932,165.623-83.153c3.031,31.964,6.087,64.198,9.144,96.435
		c4.275,43.874,8.551,87.748,12.76,130.937c1.053,10.797,2.102,21.551,3.145,32.252c1.072,10.698,2.139,21.342,3.199,31.923
		c2.121,21.16,4.215,42.063,6.275,62.623c1.734,17.493,3.475,34.717,5.203,51.657C882.78,928.995,867.43,916.098,851.856,903.011z
		 M916.802,1059.638c-1.493-16.762-3.031-34.028-4.612-51.77c-1.378-15.403-2.784-31.166-4.223-47.208
		c16.97,13.991,33.613,27.715,49.835,41.091c16.949,13.919,33.452,27.471,49.448,40.607
		C976.808,1048.174,946.636,1053.938,916.802,1059.638z M1369.403,973.448c-83.717,15.9-167.433,31.802-249.842,47.454
		c-34.93,6.673-69.621,13.301-103.981,19.864c-17.101-14.427-34.799-29.359-53.019-44.731c-18.059-15.175-36.63-30.78-55.614-46.732
		c-1.769-19.646-3.594-39.711-5.495-60.11c-1.895-20.576-3.822-41.495-5.772-62.672c-0.975-10.588-1.957-21.241-2.942-31.947
		c-1.015-10.703-2.034-21.46-3.058-32.26c-4.098-43.199-8.26-87.084-12.423-130.97c-3.265-33.489-6.529-66.976-9.765-100.161
		c16.756-8.412,33.579-16.858,50.465-25.336c40.29-20.281,80.92-40.733,121.706-61.263c1.456,1.402,2.903,2.795,4.361,4.199
		c23.617,22.702,47.521,45.68,71.615,68.841c48.231,46.28,97.229,93.294,146.226,140.309
		c49.076,46.932,98.152,93.862,146.463,140.061c48.371,46.134,95.975,91.535,142.043,135.472c1.723,1.639,3.428,3.26,5.146,4.894
		C1493.835,949.987,1431.62,961.718,1369.403,973.448z"/>
</g>
<g id="Layer_5">
	<path d="M1740.505,238.272c0,0,35.299,51.771,102.761,53.341c67.46,1.569,102.76,15.687,102.76,47.066
		c0,31.38,12.551,164.734,12.551,164.734l-18.924,83.934c0,0,70.306,65.112,96.782,103.548
		c26.474,38.438,59.418,96.485,70.401,97.271c0,0-16.471,14.903-29.808,11.766c0,0,3.138,0.178,3.138,6.757
		c0,6.58-25.888,29.376-25.888,29.376s44.715,31.254,21.181,79.145c0,0,16.111,34.162,25.887,71.358
		c13.522,51.473,22.449,111.838,27.457,123.222c8.627,19.609,28.239,90.21,28.239,90.21h-158.459c0,0-83.519-188.73-126.871-208.503
		c0,0-33.88,30.433-96.213,208.503h-213.065c0,0-14.905-9.907-3.138-16.328c11.766-6.422,40.649-63.688,75.628-215.869
		c0,0,26.356-46.414,19.685-69.88c-6.672-23.467-6.907-123.877,4.978-130.937c0,0-17.927-59.62-32.83-61.187
		c-14.903-1.567-23.533-21.18-17.256-26.67c0,0-9.412-13.73-5.491-23.338c0,0-20.399-8.63-29.026-35.006
		s-58.048-183.411-48.634-199.813c0,0-10.197-6.987,4.708-18.753c14.902-11.766,44.713-41.574,44.713-41.574
		s-54.127-67.463-41.577-89.426c12.551-21.966,163.95-55.699,163.95-55.699L1740.505,238.272z"/>
</g>
<g id="Layer_3">
	<path fill="#C11717" d="M1885.756,746.248c0,0,114.201,77.219,150.679,127.228c0,0-5.737,4.706-8.752,4.706l-26.549-25.298
		c0,0-88.838,49.419-135.317,25.298l-22.943-81.19C1842.873,796.991,1871.571,767.28,1885.756,746.248z"/>
	<path fill="#C11717" d="M1825.194,844.35c0,0,5.129,21.478-3.499,21.087c-8.631-0.392-91.604-26.158-97.271-43.145
		c-0.956-2.873,3.314-3.262,6.667-6.761c3.517-3.671,6.21-10.342,9.021-8.535C1745.604,810.525,1805.555,827.577,1825.194,844.35z"
		/>
	<path fill="#C11717" d="M1814.635,664.227c0,0,14.513-20.007,14.513-29.026c0,0-44.321-74.521-45.106-113.744
		c-0.786-39.222-9.023-84.326,16.08-135.709c0,0-1.176-6.273-7.06,3.139c-5.884,9.414-20.004,54.911-24.71,72.562
		c0,0,6.273-96.095,34.907-117.275c0,0-32.161-43.536-50.204-45.889c0,0-40.4,66.676-101.192,85.503c0,0,21.181,14.12,26.278,23.139
		c0,0,24.711-18.433,56.48,25.888c0,0-34.123-38.437-53.344-18.434l3.138,5.099c0,0,50.989-15.688,80.407,74.521
		c13.005,39.888,17.783,72.507,26.279,102.37C1801.822,634.05,1814.635,664.227,1814.635,664.227z"/>
	<path fill="#C11717" d="M1843.266,503.414c0,0-39.617,2.747-51.773,0c0,0-3.528,4.315,4.315,5.493
		c7.844,1.176,36.868,1.963,41.574,0S1843.266,503.414,1843.266,503.414z"/>
	<path fill="#C11717" d="M1707.558,503.414c0,0,5.884-7.432,7.06,3.343c1.178,10.776,1.57,22.153,0,24.505
		c-1.568,2.354-58.441,43.931-62.755,44.324c-4.313,0.391-18.044-4.709-16.868-7.456c1.178-2.745,3.924,0.785,9.809,0.785
		c5.882,0,60.012-33.729,62.755-41.573C1710.303,519.496,1705.303,505.395,1707.558,503.414z"/>
	<path fill="#C11717" d="M1838.754,803.17c2.034,2.516,10.296-3.825,0-10.592c-10.295-6.765-77.071-35.005-81.778-30.298
		c-4.706,4.706-9.707,5.883,5.589,8.825C1777.861,774.046,1829.734,792,1838.754,803.17z"/>
</g>
<g id="Layer_2">
	<g>
		<path fill="#1A1A1A" d="M1552.236,991.73c0,0,4.705,27.453,18.825,35.3c0,0,436.937-221.606,806.018-508.321
			c0,0,4.706-13.729,4.706-34.124C1854.639,850.138,1552.236,991.73,1552.236,991.73z"/>
		<path fill="#1A1A1A" d="M2012.899,207.417c2.526-11.73,15.886,18.302,14.71,25.362c-1.177,7.06-168.265,815.43-231.803,950.747
			c0,0-28.83,1.766-35.302-7.06C1760.505,1176.467,1871.112,865.827,2012.899,207.417z"/>
		<path fill="#1A1A1A" d="M1813.502,285.712c-22.961-9.74-37.4-65.152-45.3-84.505c10.125,8.614,21.283,17.154,30.348,26.866
			c-35.395-55.637-58.025-110.476-119.642-143.618c-32.001-17.213-56.073-0.721-56.073-0.721s-34.517-18.041-112.233,58.364
			c-28.552,25.05-34.105,68.922-31.32,104.801c1.686-10.718,3.359-21.533,6.403-31.967c-5.244,45.051,2.685,89.666-6.403,134.337
			c13.663-28.731,15.16-58.291,14.166-89.997c1.857,14.481,6.314,27.695,9.073,41.753c0.401-10.392-1.431-20.519-0.171-31.085
			c12.503,23.6,12.113,54.204,4.585,79.328c4.699-17.572,13.972-32.008,15.728-50.966c1.228,23.95,6.608,46.218,9.57,69.793
			c-0.119-25.533,2.216-50.034,6.283-75.242c3.576,29.049,14.005,47.591,29.605,70.536c-16.486-28.383-17.829-59.073-11.844-91.602
			c5.215,16.4,6.03,31.851,7.137,49.241c2.291-2.243,2.4-21.915,3.148-25.395c0.772,1.443,9.431,17.576,10.971,17.158
			c-4.439-22.768-8.834-29.122-0.716-53.292c1.987,32.641,16.688,61.855,31.31,89.769c-4.493-30.85-3.512-61.853,1.698-92.595
			c11.084,28.265,9.729,42.541,3.597,69.062c-0.156-0.477,6.891-8.121,7.603-9.127c-0.036,8.724-2.538,17.043-2.896,25.601
			c7.854-27.354,18.086-54.926,23.667-82.876c-1.339,27.801-3.388,55.402-7.782,82.876c5.916-23.772,15.554-47.032,21.722-70.912
			c1.78,32.448,1.853,64.611-2.485,96.799c8.934-29.966,13.993-60.541,17.203-91.674c11.623,28.925,15.479,64.983,17.239,95.792
			c0.844-14.649,3.912-29.299,4.734-44.064c6.163,19.051,9.516,36.255,11.01,55.832c0.694-19.299,4.514-37.641,3.271-57.778
			c7.34,18.859,11.945,37.914,15.556,57.778c0.035-18.359,2.06-36.05,0.746-54.534c5.243,27.718,7.624,55.776,6.314,83.954
			c8.076-36.394,9.744-74.348,7.701-111.184c6.33,30.246,9.592,60.901,7.596,91.764c9.711-43.899,8.621-89.895,3.534-134.227
			c17.597,18.382,25.498,37.664,32.648,61.274c-5.25-26.236-5.064-46.221-19.763-70.761c20.6,14.108,29.06,29.812,40.06,50.757
			c-3.402-11.091-2.554-22.347-7.718-33.599C1798.108,273.087,1811.14,284.445,1813.502,285.712
			C1813.122,285.551,1814.239,286.107,1813.502,285.712z M1600.95,327.731c-8.518-16.981-9.759-35.517-7.914-54.247
			C1594.08,288.125,1596.512,319.934,1600.95,327.731C1600.41,326.656,1601.275,328.306,1600.95,327.731z"/>
	</g>
</g>
<g id="Layer_4">
	<path fill="#1A1A1A" d="M1654.608,552.833c0,3.468-2.812,6.279-6.277,6.279s-6.275-2.811-6.275-6.279
		c0-3.465,2.81-6.273,6.275-6.273S1654.608,549.368,1654.608,552.833z"/>
	<circle fill="#1A1A1A" cx="1838.951" cy="490.862" r="6.275"/>
	<path fill="#FFFFFF" d="M1733.234,939.286c2.665-2.565,5.416,9.004,0,16.359c-8.945,12.157-14.207,7.683-14.795-1.061
		C1717.852,945.84,1724.289,947.898,1733.234,939.286z"/>
	<path fill="#FFFFFF" d="M1705.215,913.702c0,0-36.492,21.94-42.766,18.41c-6.273-3.529-1.176-14.854,5.1-18.41
		c6.276-3.556,12.835-11.006,14.851-13.752c0.922-1.255,8.785-3.687,13.782-0.309
		C1702.104,903.646,1705.215,913.702,1705.215,913.702z"/>
	<path fill="#FFFFFF" d="M1705.215,913.702"/>
	<path fill="#FFFFFF" d="M1821.691,954.467c8.516-2.179,21.571,3.53,13.728,24.711c-7.843,21.18-19.609,10.982-18.433-0.391
		C1818.162,967.413,1804.827,958.78,1821.691,954.467z"/>
	<path fill="#FFFFFF" d="M1860.912,959.567c0,0-1.19,9.592-4.313,17.649c-2.712,6.986-7.56,12.429-5.884,14.28
		c3.613,3.99,14.151-4.455,17.258-9.573c6.67-10.983,2.967-24.846,0-26.279C1865.006,954.21,1863.877,953.249,1860.912,959.567z"/>
	<path fill="#FFFFFF" d="M1885.628,949.37c2.747-10.99-1.129-23.927-1.129-23.927s11.819-10.983,0-25.104
		c0,0,12.499-16.078,0.733-20.393c-11.768-4.316-18.827,5.358-15.298,17.976c0,0-9.668,19.678-0.911,27.521
		c0,0-8.428,24.829-1.439,32.164C1874.573,964.94,1883.431,958.156,1885.628,949.37z"/>
</g>
</svg>
