<?xml version="1.0" encoding="utf-8"?>
<!-- Generator: Adobe Illustrator 16.0.0, SVG Export Plug-In . SVG Version: 6.00 Build 0)  -->
<!DOCTYPE svg PUBLIC "-//W3C//DTD SVG 1.1//EN" "http://www.w3.org/Graphics/SVG/1.1/DTD/svg11.dtd">
<svg version="1.1" id="Layer_1" xmlns="http://www.w3.org/2000/svg" xmlns:xlink="http://www.w3.org/1999/xlink" x="0px" y="0px"
	 width="200px" height="100px" viewBox="0 0 200 100" enable-background="new 0 0 200 100" xml:space="preserve">
<path fill-rule="evenodd" clip-rule="evenodd" fill="#FFFFFF" d="M51.829,50c0-3.013,2.457-5.455,5.488-5.455
	s5.488,2.442,5.488,5.455c0,3.012-2.457,5.455-5.488,5.455S51.829,53.012,51.829,50z M189.024,77.273c-10.976,0-76.829,0-82.317,0
	s-5.488,0-11.147-5.625C87.527,63.664,73.78,50,73.78,50s-5.488-5.455,0-5.455c10.976,0,9.415,0,16.463,0
	c10.975,0,10.975-10.91,0-10.91c-7.799,0-18.766,0-27.439,0c-5.488,0-5.488,0-10.976,5.455c-5.488,5.455-16.463,16.365-21.951,21.82
	c-5.488,5.453-5.488,5.453,0,5.453c12.868,0,32.927,0,38.415,0c10.976,0,10.976,10.91,0,10.91s-65.854,0-65.854,0s-5.488,0,0-5.455
	c5.487-5.455,38.415-38.183,43.902-43.638s5.488-5.455,10.976-5.455s47.447,0,54.878,0c21.951,0,21.951,32.729,0,32.729
	c-2.356,0-5.488,0-10.977,0c-5.487,0-5.487,0,0,5.455c5.488,5.453,5.488,5.453,10.805,5.453c14.043,0,57.146,0,66.025,0
	c10.976,0,10.976-10.908,0-10.908s0,0-10.976,0c-10.977,0-10.977-10.91,0-10.91c10.976,0,0,0,10.976,0s10.976-10.91,0-10.91
	s-21.952,0-32.927,0c-10.976,0-10.976-10.909,0-10.909c10.975,0,32.927,0,43.902,0c5.487,0,10.976,5.455,10.976,10.909
	c0,5.455,0,21.82,0,32.728C200,71.818,194.512,77.273,189.024,77.273z M141.151,44.545c-0.026,0,0.584,0,2.453,0
	c0.438,0,0.931,0,1.518,0c10.975,0,10.975,10.91,0,10.91c-0.587,0-1.079,0-1.518,0c0.026,0-0.584,0-2.453,0
	c-0.438,0-0.931,0-1.518,0c-10.976,0-10.976-10.91,0-10.91C140.221,44.545,140.714,44.545,141.151,44.545z"/>
</svg>
